<mxfile host="Electron" modified="2023-12-20T07:15:47.478Z" agent="Mozilla/5.0 (Windows NT 10.0; Win64; x64) AppleWebKit/537.36 (KHTML, like Gecko) draw.io/21.6.8 Chrome/114.0.5735.289 Electron/25.5.0 Safari/537.36" etag="EBgXBAgVtnx0u_SO6-18" version="21.6.8" type="device">
  <diagram name="Page-1" id="zTzW81NhB6oGk791_Fn_">
    <mxGraphModel dx="2922" dy="2312" grid="1" gridSize="10" guides="1" tooltips="1" connect="1" arrows="1" fold="1" page="1" pageScale="1" pageWidth="850" pageHeight="1100" math="0" shadow="0">
      <root>
        <mxCell id="0" />
        <mxCell id="1" parent="0" />
        <mxCell id="jFsR8MRq-HhK5lw-doGB-1" value="" style="shape=image;verticalLabelPosition=bottom;labelBackgroundColor=default;verticalAlign=top;aspect=fixed;imageAspect=0;image=data:image/png,iVBORw0KGgoAAAANSUhEUgAABzoAAAFnCAYAAADe5082AAAAAXNSR0IArs4c6QAAAARnQU1BAACxjwv8YQUAAAAJcEhZcwAAEnQAABJ0Ad5mH3gAALcnSURBVHhe7P19rB3Vfej/D7+0oeBjucSQxNAQQcyDEiRToFAiio1aImxBxR8Yo1QCg3QL2FZR7D8Mulhcy3yF+cNGRJALUnmyVOQKq0UBAboIGaykiFtAcGUiKE8tCbgtNmBFQKnU8tN7eX8Oc8azH9bsPcdn2++XNJp99l579lpr1syeM5+91jpsYmLiy0KSJEmSJEmSJEmSxsj/r7OWJEmSJEmSJEmSpLFhoFOSJEmSJEmSJEnS2DHQKUmSJEmSJEmSJGnsGOiUJEmSJEmSJEmSNHYMdEqSJEmSJEmSJEkaOwY6JUmSJEmSJEmSJI0dA52SJEmSJEmSJEmSxo6BTkmSJEmSJEmSJEljx0CnJEmSJEmSJEmSpLFz2MTExJedx8Vvf/vbziNJ0qFq9uzZnUeSJEmSJEmSJM1c9uiUJEmSJEmSJEmSNHYMdEqSJEmSJEmSJEkaOwY6JUmSJEmSJEmSJI0dA52SJEmSJEmSJEmSxo6BTkmShnDKKacU99xzT3HnnXd2npEkSZIkSZIkTQcDnZIkDeGNN95I6wULFhRLly5NjyUdOjju+bHDuB7/455/Sc08++yzadFXPB9KkiRJ4+mwiYmJLzuPi9/+9redR5KkQ9Xs2bM7j/ZH78UrrriiOO2004pjjjkmPffhhx8Wb731VrF58+b0uIm1a9cWixcvLp588sni9ttv7zw7Oty0OvXUUzt/fYX8vvjii8X999/fOO/ghtjKlSuL119/vbjuuus6z/ZnfY5WW/U5U5177rnFnDlzipdeeqmVsh1q9dnUE088URx55JHFZ599VixZsqTz7PRr2h5mSv5V71A7n0d5q957773itdde2y8/kf+6+onXNm7cWDz11FOT237++eeLm266qZNqqkceeSSd7+I9B7MIci5atCitDybjfj5s+/t9JuFaY/ny5cX8+fMnrzU43rdv31488MAD6e8y0lxzzTXFWWedNSU954c2zpGSJEkaD/bolCQNhJsud9xxR3HBBRekGwsE9Vh4zGsPPfRQJ+XMxc2iyHfknZuemzZt6qRohhujbJsbqtTFIKzP0ToY6jPXVVddVdx4443FmWee2XlmdA7F+myKG6zl9YHStD3MlPzrwJpJ53OU80PbPP744yfzQ96aIEhKAItzGMGVqquvvnryfHewBzkPduN+Pmzz+30m4ZjjWoNjMo49jn2Od+pg1apVnZT7kIZzAOeCSF8+P9x2222dlJIkSTrUGOiUJPXFzYR169alX7nTE4IejPRcZLn22mvTTQaCfTMdvVMi3yz06OCmJzdIuNkyDHoB4M///M/Tuhfrc7QOlvqcKazPPNQLvb9Yj6Nxz79GY6acz0M5P1deeeXkuYf80JurCQIozz33XHpMD7Kq6MFX/iEHZSfYwnlRBz/am+fD6cW1Br0341qDNT20cfbZZ6d1WLZsWToHcC6I9Jwf2GcgYMoiSZKkQ4+BTklSXytWrEg3IvjlNDc/uVkYmKOSmwx1w0vNdARxXnjhhfT4m9/8Zlo39fjjj/fsKVJmfY7WwVqfB4r1mW/ce3/Ze01VB+p83g3nnsceeyw9/sEPfpDWTXTr1UlAk2Am5WYJlP2yyy5LwU96i/X7ftf483w4fbiW4EcM69evn3Kt8eqrr6b10UcfndaBofRBYLScnn0Wx+3555+f1pIkSTq0GOiUJPUVNxaeeeaZtB4U82HR84t5oFiYL4tfYI/KKLb/H//xH2l9wgknpHW48847J7dLb0223atXCzdcoqfIpZdemtbdWJ/96zNHm/XJje94ve4GNz194r1V1e1v2bKltsy8t5wGt9xyS6qneC56KFx00UWTaWNePYa3i+diGUbb7TNepy4oIwvlizbCNsp1nZuefPA867Kou+q+iudJz2dEGfgc9kOd8j6Lpfp5VXwOeWa78R7+5vmqQY+Xpu2hSf55fZD926Q+mxgkPzPt+J1Og+6vXg7E+byX//f//l9a06OrqfJ3NXMQh+jN+eCDD6Z1IODCjz748Qf78d577x2oLnOOd7R5fJXPlyw87tVDte3922T7g9Rn1A1LG+fDpueTQcvbNP8Y9HyVq9zeaI/l9kbgv9yOIi1p6kT9UB9l/Iihavbs2Wn95ptvpnXVrl27Oo++8sknn3QeSZIk6VBkoFOS1FfcyOh286ION0Cqc+hw42blypUjufkyqu3/3u/9Xlq/++67aR0++uijtF2WTz/9NG2b+YKqN7DKHn300bReuHDhlJs/VdbnYPU5qDbrk5vi0UvgwgsvTOuyGFYtej6F6vZZuDlPmas3ULlhx+uIYSKZG5M88fk8t3r16vT63r17J7dHrySQLp6LZRht1mfZ6aefnuqNAALlo43wPrZR92OB3PS5COawfz7//PNUBj6H/VAXPIh9xlLuVdINN3i5Yb1gwYLU/uN9/M3z1Toa9Hhp2h5y899k/+bUZ65xPX6nS5P9VedAnM97+cY3vpHW0dabuv3229O+Oeecc1IdUSesaSvVoAs9xRgek15n9CLjs6MuOUdybPPestzjvc3jiyAnQ5Hz2eSdtMcee2xx8803d1Lsr+39m7v9Qeuz7fMhrzU5n7R9Ps85XzVFe6M9ltsbbas8hy/HCnVEPuqC9CeddFJav/LKK2ndDdtln1IHW7du7Tw7VQRCy2jXkiRJOnQZ6JQkjRw3KVjA0Jcxh862bdvSc7m9SqpGtX1+kc+NTsQwWYFhtNguC9uL+cG4QdVt+9wg5SYYN4CYR6hOuffBoA61+uQX//2WuEE4HfX58ssvp3V1rijKy81EbsYxdHHg/WyfG36UM8rNZ5G2GgiPugkE9CJfDCML0vN5tK/YHvWHhx9+ePK5WMrq6q+6TGd9BubgouzYs2dPevzaa6+lv+tuWOamz0VbvPvuu1PeKUPM+RVtuiz2GQtzCfbCfmPoSzD8JfXB+1hTR3Eju6y8fdJ1O16atAfk5L/p/h20PuvaY3UpBwRy8zOTjl/Ula+6dAv4DKLp/qoiv9N9Pu+H7SPaetlZZ52VtlNe2L/d0CON72rm+yRAiGpvzjK+3yk3PT9p19QJ+5Vje8OGDZ1U+cd70/016PFFr1XKSX4JfEVeaMvd5OzfJnK2n1Of03E+zD2fYNDyNsk/7885XzVFXqn/aG98FtunzOVgfPSWPu+889I6kAcC06jWD6g/Atr09iRwS0/On/zkJ6lOyj7++OO0vuSSS6aUizxEIFWSJEmHJgOdkqSRO78zPw431so3Ke666650Y4Sbbk0CKqHp9qs3QhmCjrTcJOs3JxM3OSOocuKJJ6Z1nbhRys2lUTnU6pP391vogdFUbnnptcPz3NDjZlyIHh1sh5uM4YwzzkhrbqSXewfxWaRl+2eeeWbn2f1xgy/yxXYpL6rDRw6qWnd1y3TW5yAOP/zwzqPB5Kavw43lci/WaMPkfxjR25S6qc5tSh2tWbNmSr3VGfT804am+3fQ+qxrj9Wl3D7H/fitlq1uORDH40w/nxPMiaBQtcccCHoQjCkv1bZWxrHI/qEnHG2Duirv714YQveDDz5I9VmVe7y3fXxF8IeeceV23iuoW9X2+afX9kdx/hyl3PNJnVHW57Dnq0FRpnL981l8JvhxR/jbv/3bVD8ENcv1c/HFF6d1t/r54Q9/mALaEQzlx0t1IzXQbqP+2RcM0Us++LEC25YkSdKhy0CnJGlgg/4qPG7ociOwKn6lPm/evLRuoun2qzdCwc2g6i/kwa/Dudlb7nUySPCSmz/cuOWzyr9yD+UbxtZnfX1Gj4ReCz0kMF31GTfWy3O6RY+O6OERjjrqqLSm90y5vCzRc6eXt956q/NoH8q7aNGivsGGbqp1V7dMd33ORHVBi1GI3qbd5g+ru+nb9PzThqb7d9D6rGuP1SXaJ8b9+K2WrW4plzfXOJ/Py8qBV4IZ9PKKwGs14AV6fFPP5YW0vUSgBoME/qLcBIEJkJIf6oiebiH3eG/7+IrAJ/ksKwfFqto+/+Rsv8n5s2055xO0WZ/Dnq8GxSgKVXGuK//QiP0RAcfy8L4nn3xyWncbtpZjmmOWHzPQU5khcjnGqkMx027pQc1ncAwcccQR6TEB7+OOOy6lMeApSZJ0aDLQKUnqK24kcRNinJVvhPIYcZOojBsr3DTiZi83GqPXCXMrDSLm6qwb8hLWZ1599jMd9fl//s//SevTTjstrempQI8CPrvcq6aMG8vUS91SnfNuJjlY2ue4avt4ORQdSsdvU5RrJpzPQznwyr7isxiqlMDoqJR7knYL/NFWKDNB0Sg37YY6IijDEKHVIOI4a3v/Hgznt5zzyXSVdyadr37+85+ndTmY22vY2rKoQwKXoKdmuWcoKOsNN9yQhpGOY5Beq+wDgp9NfxQmSZKk8WagU5LUV/xqmzlxBhE3VermzeNGBIYZmm8U27///vvTDRFuPlWHhYv5urh5EvMRsfSbuylwk4WbNXXbhvWZV5/9TEd9cmONm5TcfKeXRPRU2LlzZ1qXxRxS9EC5/fbba5devWlyzZ8/v/NoNGZa+xyVA9WrNHpqRc+tfoY9XkbdHmba/j3Yjt9RG/fzeSBAE4FXFj6LoUqnG8NnUuboTRrzRNIO+J6vyj3ep+v4qgaLqn+Htvdv7vZz67Nq1OdD5JxP2j6fT9f5au7cuZ1HX4m8ffHFF2kdyvXD+YPjheOHnpZ1x0wd0kXafvuez/nxj3+cHsccoZIkSTr0GOiUJPVVnhPnzjvvrL1BVn5ux44dac0vuMtDZ61atSrd7Bj2F9ej2D43UOKGSNwgqYqAD/gchtIbVAyJx9BbVdZnfn32Ml31+X//7/9N6x/96EeTw9Qx71lV1AO9GRiyri1x85u8cKNvVGZa+2yqfHOU+okbztMtengTNFq7dm16PIjc46Wt9jDT9u/Bcvy2ZdzP5zMRgRsCVQSo6obNLcs93ts+vmIYzxUrVqR1WL58eedRvbb376Dbb3r+bOt8GAY9n4S2zufTdb4iD+Xtcw0QPTaZl7hq+/btaU2amEe0bthatltXPtp/PP/SSy+ldVXkiR8fcL1CcJXAriRJkg5Nh01MTHzZeVz89re/7TySJB2qZs+e3Xk0FTcT4lfZ4IYCN+DADai4ERiYTytu2tELgvdxIwLclCjfLOTmFQFBbq7WzQMEbvqU5/HK2T5zI5FHeoiUb4Jwk4S0vLf8nkhP+ShnbJv3R+CSvG7evDmVuxuCnbz32muv3e8X9dZnfn320mZ9BsrHkGpsl/R8Bj006jBcXQTWotzgfW+//fZk3ZMHhrUD+UTkvbqPqrjReMcdd6Rtlj+Dnhf33XffUDfH26xP5g7Dxo0bUx75m/cQRIi2G38jN325XuIYIC/c8I88ltsbPU5uvPHGKdsI8dn0KAvUTXlYauqbtlE+3qr7jvfEfi7vK1Cf5e03PV4GbQ9N8p+zf3Prs4mD4fgd1KF2Po/yVvPTTbf8I16Lc0dVtFUM2ybLco53tHl8sV22j8gLxzw9JQmuYhTnn0E12X5ufaLN8yEGPZ80rc+c7/dBz1dNlNsb+d69e3f6DMoE8k4QnXVVXAPz2qxZs9I+rKYjoHnZZZelPLNd8Dm8D3Xnc8rLsMHsg0Bg9Wc/+1ltPiRJknRosEenJGkg3Gj4yU9+km4mcEOCGxHc6GDhBsg//dM/dVLuQxCEGzmkJQ3pSccNx+pNi8BNi9hmdakOO9lk+1XcEIlfwzPXT1i3bt3kDSe2fcQRR6TPqt4EnjNnTueverHtup4T1md+ffYyHfVJ+QiWxQ246LFQhxuLbCt600Re+Jwyyhyvhch7v6FWCZ5v2LBhv8/ghmK3HywMajrqsy3Uy09/+tOUF9oVeXnhhRcm5w3DMO3tm9/85mRdsLAtlI+36r6jDuraAwv55KZ2aHq8DNoemuR/Ju1fHAzHb67y/qkuB9v5fNzlHO9o8/hiX7EdtkfbZ/sE8Oh9yOdVtb1/m2w/tz7R5vkQg55P2j6fY9Dz1bDYD+SfbROUpFzdgpzgexeUj7zVpfu3f/u31DbjvMkC0ndr/9/4xjdSPfA+6pIfE1IH3fIhSZKkQ4M9OiVJUwwbINFXuLnDr9FR90t2SZIkaSbq1YO4H66BN23alIKYBC3relVLkiRJo2KPTkmSWkJgkx4x9DgY5bB4kiRJ0kxEgDSCnPR2NcgpSZKkttmjU5I0hT06JUmSpENbTo9O5oO9/vrrpwyZy/sYvtcRTSRJktQ2e3RKkiRJkiSpEeYZJchJcJP5O+++++4UHDXIKUmSpOlgj05J0hT26JQkSZIkSZIkjQN7dEqSJEmSJEmSJEkaOwY6JUmSJEmSJEmSJI0dA52SJEmSJEmSJEmSxs6UOTolSZIkSZIkSZIkaRzYo1OSJEmSJEmSJEnS2DHQKUmSJEmSJEmSJGnsGOiUJEmSJEmSJEmSNHYMdEqSJEmSJEmSJEkaOwY6JUmSJEmSJEmSJI0dA52SJEmSJEmSJEmSxo6BTkmSJEmSJEmSJEljx0CnJEmSJEmSJEmSpLFjoFOSJEmSJEmSJEnS2DHQKUmSJEmSJEmSJGnsGOiUJEmSJEmSJEmSNHYMdEqSJEmSJEmSJEkaOwY6JUmSJEmSJEmSJI0dA52SJEmSJEmSJEmSxo6BTkmSJEmSJEmSJEljx0CnJEmSJEmSJEmSpLFjoFOSJEmSJEmSJEnS2DHQKUmSJEmSJEmSJGnsGOiUJEmSJEmSJEmSNHYMdEqSJEmSJEmSJEkaOwY6JUmSJEmSJEmSJI0dA52SJEmSJEmSJEmSxs5hExMTX3Yeaxr89re/7TySJB3MZs+e3XkkSZIkSZIkSWrD0IHOiy66qFi4cGFx1FFHFbt27SrWr1/feeXgcM8996Q1Zdu6dWvxxhtvpL+bMtApSYcGA53NnHLKKcVPfvKT4osvvihuuOGGzrOSJEmSJEmStL/GQ9cec8wxxW233VbceOONxbnnnluceuqpxbx58zqvHjwoF8sFF1xQ3HvvvcXVV1/deUWSJI1a/KBowYIFxdKlS9NjSYcOjnt+aDiux/+4519Sd/zI+9lnn538MfSh5kCf36j76iJJkiShcY9OgpwEOD/77LPikUceKR544IHOK9OLnh/Lly8v5s+fn4KveO+994rt27fX5ok011xzTXHWWWdNSf/aa68Vt99+e/q7Kt6zePHi9PdDDz3UuLz26JSkQ8MgPTr5DrviiiuK0047bfI76cMPPyzeeuutYvPmzelxE2vXrk3fWU8++WTX77ZhcJOLHwFVkd8XX3yxuP/++xvnHdxAW7lyZfH6668X1113XefZ/qzP0WqrPmcqrmvnzJlTvPTSS62U7VCrz6aeeOKJ4sgjj0z/YyxZsqTz7PRr2h5mSv5V71A7n0d5q+L/32p+Iv919ROvbdy4sXjqqacmt/38888XN910UyfVVNwn4HwX75mpBj3eCXTyQ+/c65OZhP3R7X5Iv/Z5oM9vtMEQx9miRYvSepTavh44lFCXf/7nf55+wEjbwauvvprOMaM4J9CGL7744tQx4fjjj0/P9Tvf8H/GJZdcMpme/DB6G+eyOm2nb4q6/dGPfpQ6nHQ7b+fK3V/dvvPQ7Tw5XfUjSTr0NOrRyQU+X4Bc4G7YsOGABTnpXXnHHXekvHCBwxcpF6J8YV511VXFqlWrOin3Ic2mTZvSP2SRnot60vMcwds6bJMLBgKc4Is5/imQJKkJvrv4DuMf8/hOYuExr8V3zkzG92PkO/LO9ynftcPgxijb5h9n6mIQ1udoHQz1mYtrR25gn3nmmZ1nRudQrM+muDYvrw+Upu1hpuRfB9ZMOp+jnJ/y/7/kh7w1QVCM+wGcw/ghRxX/q8f5biYHOdHm+X+m4f4N+z72Tbk9/OxnP6vdl+FAn98ImsTSpkOpPbSJc0B0kADtjXMRQTTql/uKw2C7/M/A/oqgWT/8QIMfU5K+nJ9yPsvaTt8Exy4BRrbJdSX/L3FM/vu//3snRTPD7C8+n/Tlhem/qqajfiRJh65GgU4ugvHcc88d8F/d8Csjem8SfOSClzW/NsLZZ5+d1mHZsmXpC5Uv4Uh/5ZVXpl98gS/WXl+uBHT5MuYz2ZYkSU3wD+q6devS9wnfo/GdxHLttdem7yn+cZ/p6J0S+WahRwc3Pfmu5Z/lYdBrAPyquB/rc7QOlvqcKazPPNQL1+asx9G451+jMVPO56GcH/7/jXMP+aF3XxPcoOZ+ABhhqSp6/JV/yEHZ+TEy50VNP+51EBShLdIGyu2BXlWMMBBTCNQhvec3Derkk09O623btqXzAe2Ga6C4hxj3FZui1y1tme1xjuVeXS8E8eMz77777v3yQ8C0rO30TXDu5AcqHMecgzm/8hkcx8N2QBlmfz388MMpfXlZv35959V9pqN+JEmHtkaBTn5xg0cffTStDxS+yLko5wuUL/nARTqOPvrotA4MFQYCo+X0/MI0vlzPP//8tO7mhRdeSOvYliRJuVasWJGCHvxDzj/m5e8kbjCN4p/VA4Hv0vie/OY3v5nWTT3++OPp5gU35Xr1LoD1OVoHa30eKNZnvpne+6ufcc+/Ru9Anc+74dzz2GOPpcc/+MEP0rqJbr06CWhyQ55yx//ZoOyXXXZZujlPD55+3+8aLQJDIMhNGwg8vuGGG9J3VD+e3zQo2hOB8bvuuqvzzD7xA4mTTjoprZtiaGECcnxO+TzTzYUXXpjW3C8s/8CM6QM4j1VHkmk7fROrV69OP1DhmpLrS64fy9eVw2h7f01H/UiSDm3Zgc4YroAv0/LFcR3SMkE8wxPwSx2+zPibXhr8Y1P+JWekLX/hlfHLT16/8847O8/sU5eHmBftzTffTOuquiEUPvnkk86j3v7hH/4hrfkSliSpifixzDPPPJPWg+L7NL5LWRi2iO/XURnF9v/jP/4jrU844YS0Dnx/x3a5DmDbvXq1cJ0R/1hfeumlad2N9dm/PnO0WZ9c+8XrdTe443qP91ZVt79ly5baMvPechrccsstqZ7iubiREtefLHFtx/Bc8Vwsw2i7fcbr1AVlZKF80UbYRrmuc9OTD55nXRZ1V91X5et/PiPKwOewH+qU91ks1c+r4nPIM9uN9/A3z1cNerw0bQ9N8s/rg+zfJvXZxCD5mWnH73QadH/1ciDO5738v//3/9Kam+ZNlb+rmYM4RG/OBx98MK0DN7i5Qc+PP9iP9957b8+6LLd/0pTb/7D3E5oe7yHneBy0/UzX8T537twpdddL+ZiMhfzVidfJO3lmGeX3SxNtn/8x6P4t12Ub57dy+xn18dJUr8A454Fh5Ab4IlBXvU/Idgj+ozxccdvpc3Hs0D4ICjJSSG75BzHM/iJ/tKu66wO0XT+SJDXq0Yk9e/Z0HvXHP3OMw/75559P+cemPEcJX6h8wXHxVXdRGF+Kr7zySlp3w3a5cOXLnwmt60QgtOzYY4/tPOqtX3BXkqR+4kZDt5sLdbhBwXA/vJfvUv4h5EYM3691N2xyjWr7v/d7v5fW7777blqHjz76KG2X5dNPP03bZoiiXjexYuSIhQsXTrk5U2V9Dlafg2qzPrnWi1/dxy+7y2Lagej5FKrbZ+HmPGWu3iDlB228jhgmkjmMyBOfz3P8Ih579+6d3B7XjiBdPBfLMNqsz7LTTz891RvX2ZSPNsL72EbdjwVy0+fi+p/9U77+Zz/U3ayPfcYyyI07bsByA5pRZmj/8b6YR6paR4MeL03bQ27+m+zfnPrMNa7H73Rpsr/qHIjzeS/f+MY30jraelO333572jfnnHNOqiPqhDVtpfq/M//zM1whozIxyhKfHXXJOZJjm/dWtXE/YdjzP58xyPE4k473ch0xH+cg7Tf3/Ia2v19ytH3+z9m/03V+m877b03E/bi6+mzT4YcfntYM0Uy5Od9E2eO8PGvWrLRG2+lzlXtEzp8/PwWhCWJz7qQd8pltGGR/ce3FD1dizfFFmytru34kScoOdMawtTm40GN4Gobmin9suHiMi7sQvwY977zz0jrwJRify1B2VfxiiC9Jvuj5gucXQj/5yU/2G77i448/TutLLrlkykUAeYgLOUmS2sQvXXPxj2L8s8iwQnyX8p3KHCqou0GRY1Tb5/uYG53gn/Ayhplnuyxsj2uBuBnUbfvcIOW7nBs03ebGtj771ye/yO+3xA2/6ajPl19+Oa2rc6lTXq4NuUYsX+/xfrbPDTnKGeXms0hbDYRH3QRuuEa+GOYLpOfzaF+xPeoPdfMMldXVX3WZzvoMzFEf8yHxg0Qev/baa+nvuh/05abPRVtkDibyThkYDg3Rpstin7Ewl2Av7DeGvkTMTcX7WFNH7Mfqzbjy9knX7Xhp0h6Qk/+m+3fQ+qxrj9WlfIM/Nz8z6fhFXfmqSzWgkaPp/qoiv9N9Pu+H7SPaetlZZ52VtlNe2L/dcLOd72rm+yRwg2pvzjK+3yk3PT9p19QJ+5Vje8OGDZ1UXyGvo76f0PR4B/khuNDveGzafgY93ptgmMgIcBHwiwBzNznnt9D290uOQY+vJu0hd/9GXkK/81tTbRwvo/Snf/qnab1z5860PhD4v4LzDQHh2Ie9tJ1+EMcdd1xaMzoAPTo5lnbv3p32F5/Bjxd4PGqD7C+uuzjuOY5oa7RB8tgtP23UjyRJjXt05uBCujz3EP/Y8M8QuLgLf/u3f5u+FLmoKl/cXXzxxWnNP0Bsq+qHP/xh+pKMizG+8Ot+Kcg/W3GBxwU9Q4OQD/4Zq/7DKUnSTHF+Z/5ovqv4BzIwhwrfa9xcbBJQCU23X70Ryi94Scs/u/xSvBeuBeKm14knnpjWdeJGKTfDR+VQq0/e32+hl0FTueXlGoznuR4rX++Vf6levt4744wz0pprNsoZ+CzSsv1eQ13xA7jIF9ulvKDHQxPVuqtbprM+BxG/oh9Ubvo63ChmX4dow+R/GHGNT91U5zaljtasWTOl3uoMev5pQ9P9O2h91rXH6lJun+N+/FbLVrcciONxpp/PubEcQZhqD1xwc5ob1eWl2tbKYp44erbRNqir8v7uhSF0P/jgg1Sf3bDtNu8n5OJ4LOen2/HY9vHeBPkgqEYwjrpgX3MvZbqGhR7F98swRnn+b7p/w6ivT8JMO17KqA/OJ3wun3+g5PYcbDv9II466qi0ZkqEn/70p+kcTjCbYDn1ybHc7YehTfXbXwTU40dM9O4nL/yAgnZD+++WH3tuSpLakB3o5GInV90wtwxXgPKFLl+Gsf3ycEgnn3xyWncbNoOLuEWLFqUven75yBAd/JNVHdqFCzx+Icpn8EV9xBFHpMfcEIlfRzUpnyRJgyrf4Bz0V7dxw4MbgVXxq/N58+aldRNNt1+9EQpu2JR/rR74BTk3e8u9TgYJXvLdzY0fPqv8K/RgffavT97fb4meF9NVn3FjvTynW/QQix5jIW7scOOkXF6WQW7KxjVnoLxcN5bLmqNad3XLdNfnTMS1dhuiN1C3+fXrbso2Pf+0oen+HbQ+69pjdYn2iXE/fqtlq1vK5c01zufzsnLglYAWoyBxE5rv13JAJNAzh3ouLxGE6SYCKejVmzNEuQkC8787+aGOuHFe1fb9hFyDHo9tH+9NUU8E47h/Qn2TFwLU0z0s9HRo8/w/7Pf1qK9Pwkw7XgLn/L/6q79Kjznv1H1fT5f7778/Bftp/xFs7qXt9DnoWVluI2w/eufGfc1RGGR/8dn8r1ZGuuj93W3kvDbrR5J06Grco5MJ7Nvw85//PK3LF5+DDpvBFyq/fCRwCXpqln+ZBr5Eb7jhhjRMDhf2/OKIXxFzYc8/FP0uKqvbkyQpV/yjyM2McVa+EcpjxE3tMn54xE1ubvZy44ebpSzMlTSImKuz25Bt1mdeffYzHfX5f/7P/0lrfpUOrq+4FotruTpcw1EvdUt1zruZ5GBpn+Oq7ePlUHQoHb9NUa6ZcD4P5cAr+4rP4iYzgZVRKfckrd74DrQVykxQNMpNu6GO4n/zYW96D3M/4VBEAIP7J9wLoZ306oE4bjz/9zddxwtBM4Yy5QcNBLe6fVe06Ysvvkhr5rfkvEOwP37oEUHrcttoO31Tdb3w33nnnbSu+55pYtj9FfkpB9anq34kSYeu7EBnBAK5CB406FcXFOXLDfFlF/jHhovQuMjmHx6+XPmlGV+GgyBdpI0vzG74nB//+MfpcfwKqheGyQUXyJIkNRG/qmbO6EHETeC6eY24YYlhhuYbxfb5ZS43ybiZVL1JFvN1cQMz5gtiGXSuJ649+F6v2zasz7z67Gc66rN8vcfNlOhJUDf/T8yxTg8+hsWqW7rdVG8irlFHZaa1z1Hp1UulTdFzpt81fhj2eBl1e5hp+/dgO35HbdzP56EceGXhs7jJPN0YepoyR29SbqDz/z7toNf/+tN1P+FgP967oV6os5ki5/uF/dxN2+f/mbp/p/v+Wz9r166d7EXOMR/BrenGUMGo62UY++ull15Ka7SdPld8n0Yguuz73/9+Wo+ivQ26v+68887UQ5r0VXX5abt+JElq1KMzhreomwezDhdNDBkSCJDGL8biy65s+/btaU2amNelbtgMtlt3Yctk+vF8ty/KyBNf3HypcnHHP1j9RG+SAzlxuiRpvJXnjOafxLofDpWf27FjR1rzjy03lQPfd/wTyraGGeZqFNvnZkj8YCh+QFQVAR/wOQylN6gYEo/h7aqsz/z67GW66vP//t//m9Y/+tGPJoe93Lp1a1qXRT1wXVi+nhy1uBlDXuquL5uaae2zqXJgkfqJG8jTLXp4EzSqu7nWTe7x0lZ7mGn792A5ftsy7ufzmYjACoEnAk6DBjzif/fAOXMU9xPCoXK8E8RiqSJvnFOxd+/etJ5OTb5fIgg3yJyEbZ3/p3P/sn2uhRl6ul8bbft4GRR5Jr9cu3O/jeP+QAU58fTTT6c1+6t8HNDzl/1Fm+L8FNpOn+uf/umf0pr9VG5vPI77lHW9PQeVu7+iLXE8la9jy/n51a9+ldZou34kSTpsYmLiy87jgfGltHLlynTh9pOf/KTrr3D5RdiNN96Yfq3JzZ3du3en98RFNF9kTITPuoqLuPiyY6JqhhyppuMCkonz+RJmu+BzeB/qfn3ElyjDLJUvDrmw+9nPflabjzIuFskHn1WXn0H89re/7TySJB3MZs+e3XlUj+8Uvk/jO6v8Xcb3ZNwIDPyyNv6p5XuV9/Gdh+r3HTf/+SeV76m6eXrATZzyPF4522euI/JID5Hyj4T4biUt7y2/J9JTPsoZ2+b9Ebgkr5s3b+75D25cG1x77bX7XXtYn/n12Uub9RkoH0NhsV3S8xn0uKjD9Vvc+Ixyg/e9/fbbk3VPHrhGA/lE5L26j6q4SXPHHXekbZY/g54R991331A3K9usT35Nj40bN6Y88jfvIYgQbTf+Rm76cr3EMUBe+OFj5LHc3srX/7GNEJ9Nj7JA3ZSHpaa+aRvl462673hP7OfyvgL1Wd5+0+Nl0PbQJP85+ze3Pps4GI7fQR1q5/MobzU/3XTLP+K1OHdURVvFsG0ytH0/IQx6vDc5HmfS8V7OSxxb5fxUv4tyz2+Rx7a+X8pie4iy8F7qM4bZbPv8j0H3L2mGOb+Vy9vvGCQf5KGt42VQ5TyzrbpzLoG58jGQo1ynoMyUIeoV7IPyvi3niXqKNo26em07fS4CkdG+2D5i/1aP31y5+4tybdq0KSs/bdePJOnQ1qhHJxeOXHxyEXHrrbemC6p++DI84ogjJi80+dLrdpGF+CUSX3rdhs34t3/7t/TlyBcr240vVNLzJVl3wfSNb3wjXbjxPi5wuVnKRWW/iziCqnERxUVgv/SSJPXCdxQ/FuLHNvxDXv4u4zsqfrUb+EeR7y3Skob0pOv2fQe+Q2Ob1aU6LFiT7Vfx3Ri9VpgLOzDHS9xkYNtcD1RvopLXOXPmdP6qF9tevnx5WpdZn/n12ct01Cfli+tJRI+COlyrsS3SI/LC55RR5ngtRN77DYVH8HzDhg37fQbXjf1+uNDPdNRnW6iXn/70pykvtCvywnV6zOuFYdrbN7/5zcm6YGFbKB9v1X1HHdS1BxbyyU3q0PR4GbQ9NMn/TNq/OBiO31zl/VNdDrbz+cGCuh71/YTQ5vl/Jh3vL7/88mRdxLEV+SEgRF7Lmpzfcgzz/cIxwnmHthBlIbA3MTHRSdH++R+D7t9hz2/0HqWsfM4gw3u2ebw0UW4z5YU21lS5Tlni+yjqlaW6b9n3tPXYX1Fe9lddkK3t9LmYT5d2z/6JMvJZzLlcPX6HMcj+Ig/kh/ZfzQ/P1eWn7fqRJB3aGvXoBF9IXPzx5QQunrg4Kv8SrdcvEvth+/HroAP5pRe/AgxcVPT7tV0v9uiUpEPDsDfGtD+uDfjnGKP4pbkkSZq5Dob7CdJ08XiRJEmHskY9OsHNRS6euOHIL3A+/fTTkf3Slgu0uMgisHggL7LiF0n8Ao4LvmGCnJIkqTmuPegRw/fyqIbFkyRJB5eZdD9Bmuk8XiRJ0sGgcY/OQeT8oozx9a+//vp0cRV4H8ONHEw9NuzRKUmHBnt0SpIkNef9BGlwHi+SJOlQ1rhH56gxdj4XWVxc0Xvy7rvvThdnXmRJkiRJkqRuvJ8gDc7jRZIkHWxa7dGp/dmjU5IODfbolCRJkiRJkqR2zZgenZIkSZIkSZIkSZI0KHt0SpIkSZIkSZIkSRo79uiUJEmSJEmSJEmSNHYMdEqSJEmSJEmSJEkaO4f00LXHHHNMsXr16mL+/PnpMT788MNi6dKl6bEkSZIkSZIkSZKkmSmrR+fatWuLZ599Ni0XXXRR59l97rnnntrnZyoCm5s2bSrOPffcYtasWcXrr7+elp07d3ZSSJIkSZIkSZIkSZqpGg9du3Dhws6j8bRixYri+OOPL957773iqquuKq677rq0rF+/vpNCGh/xA4Q2HIgfMbRZnl7KP+ag3I888sjk3/woQpIkSZIkSZIkzRyNA50LFiyYHO51HJ122mlp/dhjj6XhaiUd2k455ZRi8eLF6fHdd9+dfvjAMNbPP/98eo4fREiSJEmSJEmSpJmjUaCTXpBHHnlkcfHFF3eeGT8RpKXHliRdeOGFaf3qq69OOS9s3ry5+Oyzz4pTTz3VXp2SJEmSJEmSJM0gh01MTHzZedwXwzrS4+nJJ58szjrrrGLPnj2p1xMY5pFAwMaNG4unnnoqPRd4H+kjuMhcmM8888zIgoxNth/DYi5atCitRyG2+dBDD6WeYNiwYUNxxRVXpB6w9By9+eabizfeeCO9Fqr5J5C8ffv24oEHHkh/l5HmmmuuKU444YRU32WUO/ZHyE1/5513pryC4A55eeGFF2rzAgI/UT6wTcpP7zc+r65+2yxvEwzJSrs+6aSTUgAfBLto59W2jEHbW257IB833nhj+tx33nmnuPzyy9NnsB/IDwG3br2Pc9rzIPUfeeln2P1bbT+U89Zbb52sy27l4X3r1q0rdu/eXaxZs2YkvbKj7W/btq246667Os/uE+e3utckSZIkSZIkSdKB8bWvf/3r/6vzuK/zzjsvBYPeeuut4qOPPir+6I/+KA3rSMCT3p1HH3108Ytf/CK9Hm677bbiggsuKGbNmpUCQgRtvve97xVnn312cdhhhxWvvPJKJ2UzTbe/fPnytH7wwQfTehRim3wudXDyySenwMm//Mu/FF/72teKY489tvid3/md4pe//GVKh2r+CdyQ/9NPP7341re+NSUtCLgQRKKuCSDt2rUrvYeFx88991wn5T656c8555ziiy++SK+T1+9+97spL3/8x39cPP74451U+0Sw6Tvf+U6q97fffruYO3duSk8ZUK3ftsuba9WqVcVf/uVfFt/+9reLTz75pPj1r39dfPnll8WJJ56Y2nu1DeW0t9z2MH/+/PSZ//Vf/1UsWbIkHVeUcd68eamO2Qd///d/n9JWDdqeB61/gpR/8Ad/kF4n+Pu7v/u7+9U/S7VN5OzfuvZDmj/8wz9M+wPdyvMXf/EXxfe///1izpw5KShcPuc0demll6Z29vOf/7zYu3dvCrDT/n/1q18VP/jBD9K5j31XbaOSJEmSJEmSJOnAaDxH59atW9Oa4EA3BDJYcNNNN6Xed1deeWXqFYXo5dZUzvZJR9AsllB+jiW2Nwx65K1fvz49JljF49deey39TXArkD8+j95o1157bco/C2Uh8LNw4cLJXnGgl93xxx+fXuO9lDXewxKfGXLTg+fidd5Dvghw0ZutXJ+gJx5BMHrh0YMz3vP+++93UkzFa22WNxdzMl522WXpcfS6ZLusaUOUm2BdIO/RPnLa86DtIVDX5CfKS11RB9TF1Vdf3UmVL6f++QFDvE494OGHH558LpaynO2jW/shbT87duxI6cjbSy+91Hl2dJYtW5baxsqVKyf3uSRJkiRJkiRJmlkaBzoZbpMgA73tujn//PPTmkAGgZPA0I8EKQhyEMxqKmf79PwigBRLKD/HQro2HX744Z1HRXHGGWek9RNPPDFlOFvKQpnI/5lnntl5diqG9CwHjfrJTR/IVwTl6OVYRg83EPQuDx3arRfedJZ3EBGk5/Orw6rShhgStdyu2mjP5fYQqMtyfqgr6gz0jGxqmPofRO72c9tPGduk1yvB4PJ7R4UeqZIkSZIkSZIkaWZrHOgE8+4RfOoW3GFeRXzwwQdpXRa9xBiWs6mc7TPXIsGyWEL5OZa6ORnbctRRR6U1vdmYY7G81PUiI28EeAgY0dOMeQy3bNmShgut2we56UGPQXq2lvNCT7w6bBd8Rlk5yFXWdnlzRW9KhqytUw2gtd2eA70+q2Jo1rrA6KBy6z9X7vZz2890uv/++1NPXXrWVvMnSZIkSZIkSZJmhqECnTE/X7dAmAZDIIXhTeuWd999t5NqH4YBZeE1hlVlOFOCSDfeeGMKAFblpL/llltSkIqerQTuSM/y6aefdlKMRpvlVX859d9E29tvC3PTgrlSCXLTUzd61kaQe9THgiRJkiRJkiRJam6oQCfBAIIaCxYsmOydVRZBjbp5CAlYYdeuXWndRNvbb9vHH3+c1vQovP3222uXut5t1DmvMachvVA3btyYnicAWNdzbtD0F1xwQVoTWCzPh/niiy+m57thrsuy6t9huso7qOiZGUGsfqarvc2dO7fz6CsE3xDBuG56De/btP5D5KGbptsftP207c0330zrGFK3LPZvG/OBSpIkSZIkSZKkZoYKdOLll19OQc4IBJTt2LEjrQmElgNSq1atSu9hXsNhhopte/tte+6559KaHrEMGdvU3r17O48G0y99DJMK6rXbPKzMu4gVK1akdVi+fHnn0VQHqrzdPProo2lND9a1a9emx71MV3sjWFmuHwJ/0Ws6gnFVMczusmXL0rpO0/qP4O3ZZ5/dM5Cau/3c9lNG/TMXKEMZj2ru1qeffjqt2b9Lly5Nj0FPZ/Zv/LBDkiRJkiRJkiTNDIdNTEx82XncF8GgxYsXpyEo6Z0VmDsxgg30tisHexheNIJCDD1aDooy/10MDdlU0+0zbyDoITgqsc2oA/4mT/REjLqLvwNBlOhJSaAs5nqkHG+//Xaxfv369DeYl5IhW0lDWpTLy/P0xAy56Zmbk6Bf5CPSsr/JOwj2bN68OQV8qPcYPjbeQ29EekoSLEK1ftssbxME5BiuF+X8gLqo5j+nveW2hygvz7HN3bt3pzyRD1D3BAUjqFkW20PUF9sgPxyfIaf+A4HWO+64I6Upv4d9fd9990053nO236T9hHJ5q+ecYZS3y34gP93ObZIkSZIkSZIk6cAaukcndu7c2Xm0v5hfkSAGARuCLwQQCBoMG+RE29tvG4Ef8hq92yhDlKNq3rx5KcjFa+V0lJc6WLNmTSflPrnp161bN9ljjbRHHHFESlcOahP0mTNnTnpMWvLO9ghk8Z49e/YUW7duTa/XabO8TdBG6vLDQpuqDqM6Xe2NbVH/fAZBQOq6W5AT7KPt27entFFfBEonJiY6KfbJqf/AcLMbNmzY7z2zZs0qZs+enZ4LOdvv1X6o317oXRvB0VEOJ0s9ErCO/Ut7pyzk0yCnJEmSJEmSJEkzS1aPTmkQDPu5cuXKFIhasmRJ51n1U+7RWe71K0mSJEmSJEmSpP2NpEenBHo/MhRszM8YvfokSZIkSZIkSZKkUTPQqcbogci8k7Hce++9ab5LhiFl6E/m8pQkSZIkSZIkSZLaYKBTI8P8kQy7um3btjR/Zrf5JCVJkiRJkiRJkqRhOUenJEmSJEmSJEmSpLFjj05JkiRJkiRJkiRJY8dApyRJkiRJkiRJkqSxY6BTkiRJkiRJkiRJ0tgx0ClJkiRJkiRJkiRp7BjolCRJkiRJkiRJkjR2DpuYmPiy8/iQc8wxxxSrV68u5s+fnx7jww8/LJYuXZoeSzPZs88+23n0lUWLFnUejbco28FSHkmSJEmSJEmSNHpZPTrXrl2bAhAsF110UefZfe65557a52cqApubNm0qzj333GLWrFnF66+/npadO3d2UkgzW7RZljZxjHBcx48BDmaU8eqrry62bNnS9VxXxQ8jyunvvPPOVGfd5KaXJEmSJEmSJEn1Gg9du3Dhws6j8bRixYri+OOPL957773iqquuKq677rq0rF+/vpNCmtmizbK0iePjxhtvLM4888zOMwcngo2PPPJIKi/nhkHw44+VK1em9ASc6RG+YMGC4rbbbqsNXuamlyRJkiRJkiRJ3TUOdHJzfpx7eJ122mlp/dhjj6Vgg6RD25w5c4rPPvuseP7554ubbrqpb0/ZU045pVi8eHF6fPfdd6eAM701eT8ImJblppckSZIkSZIkSb01CnTSC/LII48sLr744s4z4yeCtPTgkqSXXnqpWLJkSQpyRvCxlwsvvDCtX3311Snnkc2bN6eA6amnnjqll2ZuekmSJEmSJEmS1NthExMTX3Ye98Wwi/RIevLJJ4uzzjqr2LNnz+SwmczRyY36jRs3Fk899VR6LvA+0kdwkZ5SzzzzzMiCjE22z9x4WLRoUVqPQmzzoYceSj21sGHDhuKKK65IPWDpOXrzzTcXb7zxRnotVPNPIHn79u3FAw88kP4uI80111xTnHDCCam+yyh3dRjT3PTMF0heQfCFvLzwwgu1eQGBmSgf2Cblp3can1dXv22WtwnmYKRdn3TSSSmAD4JRtPNqW8ag7S23PZAPhojlc995553i8ssvT5/BfiA/BMS69T7Oac+D1H/kpZ9h92+1/VDOW2+9dbIuu5WH961bt67YvXt3sWbNmlZ6Zfc6pyGOlW3bthV33XVX59l94r3l13LTS5IkSZIkSZKk3hoPXbtz5850Y57hGHth7jmCSAQ9CAgR9OB9zFN39dVXd1I11/b2mzj99NNTcJCg2erVq4uPPvoo5Ys8XnrppZ1U+1Tzz8L8fQQKCRhVbdq0KaWnjGwz3sOya9euTqqv5KYnr/H6p59+mt5HXgjEVEWwieANwTjeM3fu3OL6669P76vTdnlzrVq1KgX0KAPlZbsEzfib56ttqEl7y2kPIKjL9j7//PP0GbyPuqYuhjVo/e/du3fydfYtqvXPUpWzf+vaz7HHHpuCv/2cf/75qV7Y9oGaO/Twww9P67feeiuVl7YUAe133303rWfNmpXWyE0vSZIkSZIkSZJ6axzo3Lp1a1rXBWoCgQwWMBwkve+uvPLK1GsJcZO/qZztk45gXSyh/BxLbG8Y9Mhbv359ekyvVx6/9tpr6W8COYH88XkE1q699tqUfxbKQuBn4cKFKSAS6GVHYIfXeC9ljfewxGeG3PTguXid95CvCOaV6xP0xCPYRC88Alnxnvfff7+TYipea7O8uQjSX3bZZelx9Lpku6xpQxHYC+Q92kdOex60PQTqmvxEeakr6oC6GCZ4n1P/DN0ar1MPePjhhyefi6UsZ/vo1n5I28+OHTtSOvLGkLMH2rJly1JbIkAdbaSX3PSSJEmSJEmSJGl/jQOdDLdJkIEhKruh1xUIZJTnvGNoRoIUBDkIZjWVs/05c+akAFIsofwcC+naFL26cMYZZ6T1E088MWU4W8pCmch/t95qDOlZDhr1k5s+kK8Iyp144olpHRjqFQS9CW6FBx98sPNoquks7yAiSM/nV4dVpQ0xJGq5XbXRnsvtIVCX5fxQV9QZ6B3a1DD1P4jc7ee2nzK2yXyaBIPL7z1Qcnti2nNTkiRJkiRJkqThNQ50gnn3CD51C+4wBCc++OCDtC6LXmLz5s1L6yZyts8cewTLYgnl51jq5uJry1FHHZXW9GZjjsXyUtfLi7wR4CFgRE8w5jHcsmVLGi60bh/kpgc9BunZWs4LPfHqsF3wGWXlIFdZ2+XNFb0pP/nkk7SuqgbQ2m7PgV6fVQx3irrA6KBy6z9X7vZz289Mdv/996eevfTErZanTm56SZIkSZIkSZK0v6ECnY8//nhadwuEaTAEOhjetG6JufsCw4Cy8FrMf0gQifkkCQBW5aS/5ZZbUpCKnq0E7kjPwtyVo9RmedVfTv030fb2Z4ovvvgirefPn5+C4vTsjZ64ERQvHzu56SVJkiRJkiRJUm9DBTq5WU9QY8GCBZO9s8oiqFE3DyEBK+zatSutm2h7+237+OOP05oehbfffnvtUte7jTrnNeY0pBfqxo0b0/MEAOt6zg2a/oILLkhrAovl+TBffPHF9Hw3zHVZVv07TFd5BxU9MyPI1M90tbe5c+d2Hn2F4BgiWNZNr+F9m9Z/iDx003T7g7afmebNN99M6xiCtyzaQ3n+0Nz0kiRJkiRJkiSpt6ECnXj55ZdTkDNu1Jft2LEjrQmElgNSq1atSu9hXsNhhopte/tte+6559KaHrEMGdvU3r17O48G0y99DJMK6rXbPKzMu4gVK1akdVi+fHnn0VQHqrzdPProo2lND9a1a9emx71MV3sjWFmuHwJ/0Ws6gmVVMczusmXL0rpO0/qP4O3ZZ5/dM5Cau/3c9lNG/TMXKEMZj3ru1kE9/fTTaU17WLp0aXoMekbTHuKHICE3vSRJkiRJkiRJ6u2wiYmJLzuP+yIYtHjx4jQEJb2zAnMnRrCB3nblYA/Di0ZQiKFHuaEfQVHmp4uhG5tqun3mDQQ9BEclthl1wN/kiZ6IUXfxdyDIET0pCZTFXI+U4+233y7Wr1+f/gbzUjJkK2lIi3J5eZ6emCE3PXNzEvSLfERa9jd5B8GYzZs3p4AM9R7Dx8Z76I1IT0mCOajWb5vlbYKAHMP1opwfUBfV/Oe0t9z2EOXlOba5e/fulCfyAeqeoGAENctie4j6Yhvkh+Mz5NR/INB6xx13pDTl97Cv77vvvinHe872m7SfUC5v9ZzTFPmJtgDqj3xHfaI6p2Y5H+w38t/tXIjc9JIkSZIkSZIkqbuhe3Ri586dnUf7i/kVCRYQsCF4wA1+buoPG+RE29tvG4Ef8hq92yhDlKNq3rx5KcjFa+V0lJc6WLNmTSflPrnp161bNxnEIe0RRxyR0pWD2gRl5syZkx6TlryzPQJCvGfPnj3F1q1b0+t12ixvE7SRuvyw0Kaqw6hOV3tjW9Q/n0GQjbruFuQE+2j79u0pbdQXgdKJiYlOin1y6j8w3OyGDRv2e8+sWbOK2bNnp+dCzvZ7tR/qtxd610ZwdFTDvdKuI78s5AlRnyzR9gP1TvAz2gPHB2WnXHVBy9z0kiRJkiRJkiSpu6wendIgGJZz5cqVKRC1ZMmSzrPqp9yjs9zrV5IkSZIkSZIkSfsbSY9OCfR+ZCjYmJ8xevVJkiRJkiRJkiRJo2agU43RA5F5J2O599570xyHMa8hc3lKkiRJkiRJkiRJbTDQqZFh/kiGXd22bVuaP7PbfJKSJEmSJEmSJEnSsJyjU5IkSZIkSZIkSdLYsUenJEmSJEmSJEmSpLFjoFOSJEmSJEmSJEnS2DHQKUmSJEmSJEmSJGnsGOiUJEmSJEmSJEmSNHYOm5iY+LLz+JBzzDHHFKtXry7mz5+fHuPDDz8sli5dmh5LM9mzzz7befSVRYsWdR6NtyjbwVIeSZIkSZIkSZI0elk9OteuXZsCECwXXXRR59l97rnnntrnZyoCm5s2bSrOPffcYtasWcXrr7+elp07d3ZSSDNbtFmWNnGMcFzHjwEOZpT1tttuK5544onJc92dd97Z87zGDyO2bNkyJT3b6SY3vSRJkiRJkiRJqtd46NqFCxd2Ho2nFStWFMcff3zx3nvvFVdddVVx3XXXpWX9+vWdFNLMFm2WpU0cHzfeeGNx5plndp45OF199dUpyBlBRwLI9PBesGBBKn9dsJMff6xcuTKdS8rpy9spy00vSZIkSZIkSZK6axzo5Ob8OPfwOu2009L6scceS8EGSYe2k08+Oa23bdtWLFmyJAWQ6X35/PPPp+cXL16c1uGUU06ZfO7uu+/eLz0B4rLc9JIkSZIkSZIkqbdGgU56QR555JHFxRdf3Hlm/ESQ9pFHHklrSYe2m266qdi4cWNx1113dZ7Z57nnnkvrk046Ka3DhRdemNavvvrqlPPI5s2bi88++6w49dRTp/TSzE0vSZIkSZIkSZJ6O2xiYuLLzuO+GHaRHklPPvlkcdZZZxV79uyZHDaTOTq5UU+g4KmnnkrPBd5H+gguMmTjM888M7IgY5PtMzceFi1alNajENt86KGHUk8tbNiwobjiiitSD1h6jt58883FG2+8kV4L1fwTSN6+fXvxwAMPpL/LSHPNNdcUJ5xwQqrvMspdHcY0Nz3zBZJXEHwhLy+88EJtXkBgJsoHtkn56Z3G59XVb5vlbYIhSWnXBLII4INgFO282pYxaHvLbQ/kgyFS+dx33nmnuPzyy9NnsB/IDwGxbr2Pc9rzIPUfeeln2P1bbT+U89Zbb52sy27l4X3r1q0rdu/eXaxZs6bVXtnluijnJ44VeoBWg6NxPiy/lptekiRJkiRJkiT11njo2p07d6Yb8wzH2AtzzxFEIuhBQIigB+9jnjrmxBtW29tv4vTTT0/BQYJmq1evLj766KOUL/J46aWXdlLtU80/C/P3ESgkYFS1adOmlJ4yss14D8uuXbs6qb6Sm568xuuffvppeh95IRBTFcEmgjcE43jP3Llzi+uvvz69r07b5c21atWqFMSiDJSX7RI042+er7ahJu0tpz2AoC7b+/zzz9Nn8D7qmroY1qD1v3fv3snX2beo1j9LVc7+rWs/xx57bAr+9nP++eenemHbbc8dOnv27LSulvfwww9P67feeiuVl7YUAe133303rWfNmpXWyE0vSZIkSZIkSZJ6axzo3Lp1a1rXBWoCgQwWMCwkve+uvPLK1GsJcZO/qZztk45gXSyh/BxLbG8Y9Mhbv359ekyvVx6/9tpr6W8COYH88XkE1q699tqUfxbKQuBn4cKFKSAS6FlGYIfXeC9ljfewxGeG3PTguXid95CvCOaV6xP0xCPYRC88Alnxnvfff7+TYipea7O8uQjSX3bZZelx9Lpku6xpQxHYC+Q92kdOex60PQTqmvxEeakr6oC6GCZ4n1P/zBsZr1MPePjhhyefi6UsZ/vo1n5I28+OHTtSOvL20ksvdZ5tx5/+6Z+mNT/u6GbZsmWpLRGgjjbSS256SZIkSZIkSZK0v8aBTobbJMjAEJXd0OsKBDIInASGZiRIQZCDYFZTOdufM2dOCiDFEsrPsZCuTdGrC2eccUZaP/HEE1OGs6UslIn8d+utxhCa5aBRP7npA/mKoNyJJ56Y1iHmLCToTXArPPjgg51HU01neQcRQXo+vzqsKm2IIVHL7aqN9lxuD4G6LOeHuqLOQO/Qpoap/0Hkbj+3/ZSxzSVLlqRgcPm9o8b+5LzA/v3bv/3bzrP7y+2Jac9NSZIkSZIkSZKG1zjQCebdI/jULbjDEJz44IMP0roseonNmzcvrZvI2T5zLRIsiyWUn2Opm5OxLUcddVRa05uNORbLS10vL/JGgIeAET3BmMdwy5YtabjQun2Qmx70GKRnazkv9MSrw3bBZ5SVg1xlbZc3V/Sm/OSTT9K6qhpAa7s9B3p9VjHcKeoCo4PKrf9cudvPbT/TjTz/1V/9VXpM4LlXQPX+++9PPXvpiVstT53c9JIkSZIkSZIkaX9DBToff/zxtO4WCNNgCHQwvGndEnP3BYYBZeG1mP+QgAzzSRIArMpJf8stt6QgFT3YCNyRnoW5K0epzfKqv5z6b6Lt7U8H2hjzhxKMJRhJkL3qiy++SOv58+enICg9e6MnbgTFy8dObnpJkiRJkiRJktTbUIFObtYT1FiwYMFk76yyCGrUzUNIwAq7du1K6yba3n7bPv7447SmR+Htt99eu9T1bqPOeY05DemFunHjxvQ8wRmWqkHTX3DBBWlNYLE8H+aLL76Ynu+GuS7Lqn+H6SrvoKJnZgSZ+pmu9jZ37tzOo68QHEMEy7rpNbxv0/oPkYdumm5/0PYzXdauXZuC6BHkLA8jXPbmm2+mdQzBWxbtoTx/aG56SZIkSZIkSZLU21CBTrz88sspIBA36st27NiR1gRCywGpVatWpfcw790wQ8W2vf22Pffcc2lNj1iGjG1q7969nUeD6Zc+hkkF9dptHlbmXcSKFSvSOixfvrzzaKoDVd5uHn300bSmByvBrX6mq70RrCzXD4G/6DUdwbKqGFZ12bJlaV2naf1H8Pbss8/uGUjN3X5u+ymj/pkLlKGMRzV3K9tke4sXL049mgn4dwty4umnn05r2sPSpUvTY9AzmvYQPwQJueklSZIkSZIkSVJvh01MTHzZedwXwSCCAAxBSe+swLCOEWygt1052EPPqAgKMfQoN/QjKNqrt9Sgmm6feQNBD8FRiW1GHfA3eaInYtRd/B0IckRPSgJlMdcj5Xj77beL9evXp7/BvJQM2Uoa0qJcXp6nJ2bITc/cnAT9Ih+Rlv1N3kEwZvPmzSkgQ73H8LHxHnoj0lOSYA6q9dtmeZsgIMdwvSjnB9RFNf857S23PUR5eY5t7t69O+WJfIC6JygYQc2y2B6ivtgG+SkPu5pT/4FA6x133JHSlN/Dvr7vvvumHO8522/SfkK5vNVzTlPlbVLHdXOlvvDCC1P2cfk97Dfy3+1ciNz0kiRJkiRJkiSpu6F7dGLnzp2dR/uL+RUJYhCwIfjCDX5u6g8b5ETb228bgR/yGr3bKEOUo2revHkpAMNr5XSUlzpYs2ZNJ+U+uemZkzB6lJH2iCOOSOnKQW2CMnPmzEmPSUve2R6BLN5DcGjr1q3p9TptlrcJ2khdflhoU9VhVKervbEt6p/PIAhIXXcLcoJ9tH379pQ26otA6cTERCfFPjn1HxhudsOGDfu9Z9asWcXs2bPTcyFn+73aD/XbC71rIzjaxnCvtPPIe3n55je/2UmxD/VOgDvaA++j7JSrLmiZm16SJEmSJEmSJHWX1aNTGgTDcq5cuTIFopYsWdJ5Vv2Ue3SWe/1KkiRJkiRJkiRpfyPp0SmB3o8MBRvzM0avPkmSJEmSJEmSJGnUDHSqMXogMu9kLPfee2+a75JhSBmak7k8JUmSJEmSJEmSpDYY6NTIMH8kw65u27YtzZ/ZbT5JSZIkSZIkSZIkaVjO0SlJkiRJkiRJkiRp7NijU5IkSZIkSZIkSdLYMdApSZIkSZIkSZIkaewY6JQkSZIkSZIkSZI0dgx0SpIkSZIkSZIkSRo7h01MTHzZeXzIOeaYY4rVq1cX8+fPT4/x4YcfFkuXLk2PpZns2Wef7Tz6yqJFizqPxluU7WApjyRJkiRJkiRJGr2sHp1r165NAQiWiy66qPPsPvfcc0/t8zMVgc1NmzYV5557bjFr1qzi9ddfT8vOnTs7KaSZLdosS5s4Rjiu48cAB7NTTjmluO2224pHHnlk8ly3ZcuW4uqrr+6k2B8/jCBNpL/zzjtTnXWTm16SJEmSJEmSJNVrPHTtwoULO4/G04oVK4rjjz++eO+994qrrrqquO6669Kyfv36TgppZos2y9Imjo8bb7yxOPPMMzvPHJwIZt5xxx0p6EhQlwAyPbw5T1AHq1at6qT8Cj/+WLlyZUoT6RcsWJCCpXXBy9z0kiRJkiRJkiSpu8aBTm7Oj3MPr9NOOy2tH3vssRRskKQjjzyy2L59e+p1SQCZ9ZNPPpleO/vss9M60Ptz8eLF6fHdd989mf75559PzxEcLctNL0mSJEmSJEmSemsU6KQXJAGBiy++uPPM+IkgLUNUStIDDzxQXHvttalXd/nHD6+++mpaH3300WkdLrzwwrTm9fJ5ZPPmzcVnn31WnHrqqVN6aeamlyRJkiRJkiRJvR02MTHxZedxXwy7SI8kejidddZZxZ49eyaHzWSOTm7Ub9y4sXjqqafSc4H3kT6CiwzZ+Mwzz4wsyNhk+8yNh0WLFqX1KMQ2H3roodRTCxs2bCiuuOKK1AOW4MnNN99cvPHGG+m1UM0/gWR6lRF4qSLNNddcU5xwwgmpvssod3UY09z0zBdIXkHwhby88MILtXkBgZkoH9gm5ad3Gp9XV79tlrcJ5p+kXZ900kkpgA+CUbTzalvGoO0ttz2QD4aI5XPfeeed4vLLL0+fwX4gPwTEuvU+zmnPg9R/5KWfYfdvtf1QzltvvXWyLruVh/etW7eu2L17d7FmzZpWe2Wz7xhulrzdcMMNnWe/Ola2bdtW3HXXXZ1n94nzYfm13PSSJEmSJEmSJKm3xkPX7ty5M92YZzjGXph7jiASQQ8CQgQ9eB+BA+bEG1bb22/i9NNPT8FBgmarV68uPvroo5Qv8njppZd2Uu1TzT9LzAlIwKhq06ZNKT1lZJvxHpZdu3Z1Un0lNz15jdc//fTT9D7yQiCmKoJNBG8IxvGeuXPnFtdff316X522y5uLeRcJ6FEGyst2CZrxN89X21CT9pbTHkBQl+19/vnn6TN4H3VNXQxr0Prfu3fv5OvsW1Trn6UqZ//WtZ9jjz02BX/7Of/881O9sO025w4lj+xX8rd169bOs/scfvjhaf3WW2+l8tKWIqD97rvvpvWsWbPSGrnpJUmSJEmSJElSb40DnXHTvy5QEwgSsOCmm25Kve+uvPLK1GsJcZO/qZztk45gXSyh/BxLbG8Y9Mhj+EvQ65XHr732WvqbQE4gf3wegTWGzCT/LJSFwMrChQtTQCTQy47ADq/xXsoa72GJzwy56cFz8TrvIV8RzCvXJ+iJR7CJnm4EsuI977//fifFVLzWZnlzEaS/7LLL0uPodcl2WdOGIrAXyHu0j5z2PGh7CNQ1+YnyUlfUAXUxTPA+p/6ZNzJepx7w8MMPTz4XS1nO9tGt/ZC2nx07dqR05O2ll17qPDsatAuCkPTAJHD75ptvFj/5yU8m59Kss2zZstSWCFBHG+klN70kSZIkSZIkSdpf40Anw20SZGCIym7odQUCGeUgAUMzEqQgyEEwq6mc7c+ZMycFkGIJ5edYSNem6NWFM844I62feOKJKcPZUhbKRP679VZjSM9y0Kif3PSBfEVQ7sQTT0zrwFCvIOhNcCs8+OCDnUdTTWd5BxFBej6/OqwqbYghUcvtqo32XG4Pgbos54e6os5A79Cmhqn/QeRuP7f9lLHNJUuWpGBw+b2j8MMf/jAFIelpCoLRvX7QgdyemPbclCRJkiRJkiRpeI0DnWDePYJP3YI7DMGJDz74IK3LopfYvHnz0rqJnO0z1yLBslhC+TmWujkZ23LUUUelNb3ZmGOxvNT18iJvBHgIGNETjHkMt2zZknqd1e2D3PSgxyA9W8t5oSdeHbYLPqOsHOQqa7u8uaI35SeffJLWVdUAWtvtOdDrs4rhTlEXGB1Ubv3nyt1+bvuZLgSZORfQu/Tuu+9OQwgzHO8tt9zSSbG/+++/P/XspSdutTx1ctNLkiRJkiRJkqT9DRXofPzxx9O6WyBMgyHQwfCmdUvM3RcYBpSF12L+Q4JIzCdJALAqJz2BHIJU9GwlcEd6FuauHKU2y6v+cuq/iba3P10IdBNcp2cvLrjggilzEn/xxRdpPX/+/JSWnr3REzeC4uVjJze9JEmSJEmSJEnqbahAJzfrCWowxGP0ziqLoEbdPIQErLBr1660bqLt7bft448/Tmt6FN5+++21S13vNuqc15jTkJ5nGzduTM8TAKzrOTdoegI5ILBYng/zxRdfTM93Uw7+oPp3mK7yDip6ZkaQqZ/pam9z587tPPoKwTFEsKybXsP7Nq3/EHnopun2B20/BwrnORaU2wpzdyKG4C2L9lCePzQ3vSRJkiRJkiRJ6m2oQCdefvnlFOSMG/VlO3bsSGsCoeWA1KpVq9J7mNdwmKFi295+25577rm0pkcsQ8Y2tXfv3s6jwfRLH8OkgnrtNg8r8y5ixYoVaR2WL1/eeTTVgSpvN48++mha04N17dq16XEv09XeCFaW64fAX/SajmBZVQTili1bltZ1mtZ/BG/PPvvsnoHU3O3ntp8y6p+5QBnKeFRzt7Kdum2xf+P5ciDy6aefTmvaA8PcBnpG0x7ihyAhN70kSZIkSZIkSertsImJiS87j/siGMRcdQxBSe+swPCOEQigt1052MPwohEUYuhRbuhHUJT56WLoxqaabp95A0EPwVGJbUYd8Dd5oidi1F38HQhyRE9KAmUx1yPlePvtt4v169env8G8lAzZShrSolxenqcnZshNz9ycBP0iH5GW/U3eQTBm8+bNKSBDvcfwsfEeeiPSU5JgDqr122Z5myAgx3C9KOcH1EU1/zntLbc9RHl5jm3u3r075Yl8gLonKBhBzbLYHqK+2Ab54fgMOfUfCLTecccdKU35Pezr++67b8rxnrP9Ju0nlMtbPec0RUDzsssum6w/UIfkHXXnk3I+2G/kv9u5ELnpJUmSJEmSJElSd0P36MTOnTs7j/YX8ysSPCBgQ+CAG/zc1B82yIm2t982Aj/kNXq3UYYoR9W8efNSkIvXyukoL3UQcwmG3PTr1q2b7FFG2iOOOCKlKwe1CcrMmTMnPSYteWd7BIN4z549e4qtW7em1+u0Wd4maCN1+WGhTVWHUZ2u9sa2qH8+g6Abdd0tyAn20fbt21PaqC8CpRMTE50U++TUf2C42Q0bNuz3nlmzZhWzZ89Oz4Wc7fdqP9RvL/SujeDoqIZ7/bd/+7eUl6g/FlCWbvuXeicAGu2B4yPS1wUtc9NLkiRJkiRJkqTusnp0SoNgWM6VK1emQNSSJUs6z6qfco/Ocq9fSZIkSZIkSZIk7W8kPTol0PuRoWBjfsbo1SdJkiRJkiRJkiSNmoFONUYPROadjOXee+9N810yDClDczKXpyRJkiRJkiRJktQGA50aGeaPZNjVbdu2pfkzu80nKUmSJEmSJEmSJA3LOTolSZIkSZIkSZIkjR17dEqSJEmSJEmSJEkaOwY6JUmSJEmSJEmSJI0dA52SJEmSJEmSJEmSxo6BTkmSJEmSJEmSJElj57CJiYkvO48POcccc0yxevXqYv78+ekxPvzww2Lp0qXpsTSTPfvss51HX1m0aFHn0XiLsh0s5ZEkSZIkSZIkSaOX1aNz7dq1KQDBctFFF3We3eeee+6pfX6mIrC5adOm4txzzy1mzZpVvP7662nZuXNnJ4U0s0WbZWkTxwjHdfwY4GBGGSkrZQ5x3uMcV4cfRmzZsmXy3HjnnXdOeX9VbnpJkiRJkiRJklSv8dC1Cxcu7DwaTytWrCiOP/744r333iuuuuqq4rrrrkvL+vXrOymkmS3aLEubOD5uvPHG4swzz+w8c/C65pprUln//M//vPNMbwRBV65cmc4lBJzpEb5gwYLitttuqw1e5qaXJEmSJEmSJEndNQ50cnN+nHt4nXbaaWn92GOPpWCDJB177LFp/cknn6R1L6ecckqxePHi9Pjuu+9OAWd6az7//PPpOQLEZbnpJUmSJEmSJElSb40CnfSCPPLII4uLL76488z4iSDtI488ktaSdNRRR6X1q6++mta9XHjhhWlN2vJ5ZPPmzcVnn31WnHrqqVN6aeamlyRJkiRJkiRJvR02MTHxZedxXwy7SI+kJ598sjjrrLOKPXv2TA6byfx13KjfuHFj8dRTT6XnAu8jfQQXGbLxmWeeGVmQscn2mRsPixYtSutRiG0+9NBDqacWNmzYUFxxxRWpByw9R2+++ebijTfeSK+Fav4JJG/fvr144IEH0t9lpGF4zRNOOCHVdxnlrg5jmpue+QLJKwi+kJcXXnihNi8gMBPlA9uk/PRO4/Pq6rfN8jbBnIy065NOOikF8EEwinZebcsYtL3ltgfywbCpfO4777xTXH755ekz2A/kh4BYt97HOe15kPqPvPQz7P6tth/Keeutt07WZbfy8L5169YVu3fvLtasWTOyXtlRj+yv2CbloX1U21scK9u2bSvuuuuuzrP7xPmw/FpuekmSJEmSJEmS1FvjoWt37tyZbswzHGMvzD1HkICgB4ECgh68j3nqrr766k6q5trefhOnn356Cg4SNFu9enXx0UcfpXyRx0svvbSTap9q/lmYv49AIQGWqk2bNqX0lJFtxntYdu3a1Un1ldz05DVe//TTT9P7yAuBmKoINhG8IRjHe+bOnVtcf/316X112i5vrlWrVqWAHmWgvGyXABd/83y1DTVpbzntAQR12d7nn3+ePoP3UdfUxbAGrf+9e/dOvs6+RbX+Wapy9m9d+2HoWIK//Zx//vmpXtj2qOYOJbgL9v8ggdPDDz88rd96661UXtpSBLTffffdtJ41a1ZaIze9JEmSJEmSJEnqrXGgc+vWrWldF6gJBDJYcNNNN6XeUFdeeWXqtYS4yd9UzvZJR7AullB+jiW2Nwx65K1fvz49ptcrj1977bX0d8wBCPLH5xFUufbaa1P+WSgLgZ+FCxemgEggEENgh9d4L2WN97DEZ4bc9OC5eJ33kK8I5pXrE/TEI9hELzwCWfGe999/v5NiKl5rs7y5CNJfdtll6XH0umS7rGlDEdgL5D3aR057HrQ9BOqa/ER5qSvqgLoYJnifU//MGxmvUw94+OGHJ5+LpSxn++jWfkjbz44dO1I68vbSSy91nh3O/Pnz0/qDDz5I6xzLli1LbYkAdbSRXnLTS5IkSZIkSZKk/TUOdDLcJkEGhqjshl5XIJBB4CQwNCNBCoIc0YuqiZztz5kzJwWQYgnl51hI16bo1YUzzjgjrZ944okpw9lSFspE/rv1VmNIz3LQqJ/c9IF8RVDuxBNPTOvAUK8g6F3uAffggw92Hk01neUdRATp+fzqsKq0IYZELberNtpzuT0E6rKcH+qKOgO9Q5sapv4Hkbv93PZTxjaXLFmSgsHl9w7juOOOS+smgc7cnpj23JQkSZIkSZIkaXiNA51g3j2CT92COwzBibrAQfQSmzdvXlo3kbN95lokWBZLKD/HUjcnY1uOOuqotKY3G3MDlpe6Xl7kjQAPASN6gjGP4ZYtW9JwoXX7IDc96DFIz9ZyXuiJV4ftgs8oKwe5ytoub67oTfnJJ5+kdVU1gNZ2ew70+qxiuFPUBUYHlVv/uXK3n9t+2haBToKyue6///7Us5eeuNXy1MlNL0mSJEmSJEmS9jdUoPPxxx9P626BMA2GQAfDm9YtMXdfYBhQFl6L+Q8JIjGfJAHAqpz0t9xySwpS0bOVwB3pWZi7cpTaLK/6y6n/JtrefltoW/jxj388ZTjr6LXO6/wdvvjii7RmyFuC4vTsjZ64ERQvHzu56SVJkiRJkiRJUm9DBTq5WU9QY8GCBZO9s8oiqFE3D2EEFXbt2pXWTbS9/bZ9/PHHaU2Pwttvv712qevdRp3zGnMa0gt148aN6XkCgHU95wZNf8EFF6Q1gcXyfJgvvvhier4b5rosq/4dpqu8g4qemRFk6me62tvcuXM7j74S80dGsKybXsP7Nq3/EHnopun2B20/bSq3I/ZleTjrqFPOcfwd3nzzzbSOIXjLoj2U5w/NTS9JkiRJkiRJknobKtCJl19+OQUA4kZ92Y4dO9KaQGg5kLBq1ar0HuY1HGao2La337bnnnsurekRy5CxTe3du7fzaDD90scwqaBeu83DGkN8rlixIq3D8uXLO4+mOlDl7ebRRx9Na4JXa9euTY97ma72RmCtXD8E/qLXdATLqmKY3WXLlqV1nab1H8Hbs88+u2cgNXf7ue2njPpnLlCGMu6Vp0ERTI/hq6sLPVFBj2L+Dk8//XRa0x6WLl2aHoOe0bSH+CFIyE0vSZIkSZIkSZJ6O2xiYuLLzuO+CAYtXrw43find1Zg7sQINtDbrhzsYXjRCAoRKOCGfgRFmZ8uhm5squn2mTcQ5cDFsGKbUQf8TZ7oiRh1F38HghzRk5JAWcz1SDnefvvtYv369elvMC8lQ7aShrQol5fn6YkZctMzLCdBv8hHpGV/k3cQjNm8eXMKyFDvMXxsvIfeiPSUJJiDav22Wd4mCMgxXC/K+QF1Uc1/TnvLbQ9RXp5jm7t37055Ih+g7gkKRlCzLLaHqC+2QX44PkNO/QcCrXfccUdKU34P+/q+++6bcrznbL9J+wnl8lbPOaPW7dhFOR+8Tv67nQuRm16SJEmSJEmSJHU3dI9O7Ny5s/NofzG/IkEMAjYEX7jBz039YYOcaHv7bSPwQ16jdxtliHJUzZs3LwW5eK2cjvJSB2vWrOmk3Cc3/bp16yZ7lJH2iCOOSOnKQW2CMnPmzEmPSUve2R6BLN6zZ8+eYuvWren1Om2WtwnaSF1+WGhT1WFUp6u9sS3qn88gCEhddwtygn20ffv2lDbqi0DpxMREJ8U+OfUfGG52w4YN+71n1qxZxezZs9NzIWf7vdoP9dsLvWsjOHogh3ul3glwR3vg+KDslKsuaJmbXpIkSZIkSZIkdZfVo1MaBMNyrly5MgWilixZ0nlW/ZR7dFZ7DkqSJEmSJEmSJGmqkfTolEDvR4aCjfkZo1efJEmSJEmSJEmSNGoGOtUYPRCZdzKWe++9N813yTCkDM3JXJ6SJEmSJEmSJElSGwx0amSYP5JhV7dt25bmz+w2n6QkSZIkSZIkSZI0LOfolCRJkiRJkiRJkjR27NEpSZIkSZIkSZIkaewY6JQkSZIkSZIkSZI0dgx0SpIkSZIkSZIkSRo7BjolSZIkSZIkSZIkjZ3DJiYmvuw8PuQcc8wxxerVq4v58+enx/jwww+LpUuXpsfSTPbss892Hn1l0aJFnUfjLcp2sJRHkiRJkiRJkiSNXlagc+3atcXixYvT440bNxZPPfVUeox77rmnOPXUU/d7fqYisLlp06bi+OOPLz777LPivffeS8/v2rWrWL9+fXoszWQcc4FjD20EBs8999xizpw5xUsvvZR+CDAdDlSgM85jdV5//fXiuuuu6/z1FX4Ycckll6RzCV599dVi69atxfPPP5/+rspNL0mSJEmSJEmS6jUeunbhwoWdR+NpxYoVKdBAgPOqq65KAQwWg5waF9Fm64Jvo8TxceONNxZnnnlm55mDH+cFApvlhR9BVPHjj5UrV6ZzCWkIBC9YsKC47bbbUoC4Kje9JEmSJEmSJEnqrnGgk5vzMdzrODrttNPS+rHHHpu2XmqSxsPDDz88JZDMUv0RxCmnnDLZw/3uu+9OaeitGT0zCRCX5aaXJEmSJEmSJEm9NQp00tvpyCOPLC6++OLOM+MngrSPPPJIWktSjgsvvDCtGXq2fB7ZvHlzGg6bIXDLvTRz00uSJEmSJEmSpN4azdH55JNPFmeddVaxZ8+e1CsJvebo5H2kj+AiQzY+88wzIwsyNtl+G3MAxjYfeuih1FMLGzZsKK644orUA5aeozfffHPxxhtvpNdCNf8Ekrdv31488MAD6e8y0lxzzTXFCSecsN9cgpQ79kfITX/nnXemvCLmLn3hhRdq8wICM1E+sE3KT+80Pq+uftssbxMXXXRRatcnnXRSCuCDYBTtvG6+2UHbW257IB8MEcvnvvPOO8Xll1+ePoP9QH4IiHXrfZzTngep/8hLP8Pu32r7oZy33nrrZF12Kw/vW7duXbF79+5izZo1I+uVXT6Pvfvuu6ndsa4es4hjZdu2bcVdd93VeXaf2E75tdz0kiRJkiRJkiSpt699/etf/1+dx32dd955KRj01ltvFR999FHxR3/0R2nYRQKe9O48+uiji1/84hfp9cDccxdccEExa9asFBAiaPO9732vOPvss4vDDjuseOWVVzopm2m6/eXLl6f1gw8+mNajENvkc6mDk08+OQU2/uVf/qX42te+Vhx77LHF7/zO7xS//OUvUzpU80/ghvyffvrpxbe+9a0paUFAhCASdU0AiXkDeQ8Lj5977rlOyn1y059zzjnFF198kV4nr9/97ndTXv74j/+4ePzxxzup9olg03e+851U72+//XYxd+7clJ4yoFq/bZc316pVq4q//Mu/LL797W8Xn3zySfHrX/+6+PLLL4sTTzwxtfdqG8ppb7ntYf78+ekz/+u//qtYsmRJOq4o47x581Idsw/+/u//PqWtGrQ9D1r/BCn/4A/+IL1O8Pd3f/d396t/lmqbyNm/de2HNH/4h3+Y9ge6lecv/uIviu9///vFnDlzUlC4fM4ZRpzH2A+XXHLJ5Jq6Z3/85je/6aQsiksvvTSl/fnPf17s3bs3BeQ5Xn71q18VP/jBD9K5kn0dZc5NL0mSJEmSJEmSems8R+fWrVvTmpv33RDIYMFNN92Uet9deeWVqdcSopdbUznbJx1Bs1hC+TmW2N4w6JEX8/kRHOHxa6+9lv4muBXIH59Hb7Rrr7025Z+FshD4Wbhw4WSvONDL7vjjj0+v8V7KGu9hqc4hmJsePBev8x7yRYCL3mbl+gQ98QiC0QuPHpzxnvfff7+TYipea7O8uZgz8bLLLkuPo9cl22VNG6LcBOsCeY/2kdOeB20PgbomP1Fe6oo6oC6uvvrqTqp8OfXPDxjideoBdfNWluVsH93aD2n72bFjR0pH3l566aXOs6PDfme/UQ98DvuEoGw5/2XLli1LbWnlypWTbaSX3PSSJEmSJEmSJGl/jQOdDOVIkIHedt2cf/75aU0gg4BBYGhGggcEOQhmNZWzfXp+EayIJZSfYyFdmw4//PDOo6I444wz0vqJJ56YMjQmZaFM5P/MM8/sPDsVQ3p2C7rUyU0fyFcE5ejlWEYPNBD0Lg8d2q0X3nSWdxARpOfzq8Oq0oYYErXcrtpoz+X2EKjLcn6oK+oM9Ixsapj6H0Tu9nPbTxnbpNcrweDye4dFgDmCtLfffnsK0hKE5TPIPwHKOvRgzZGbXpIkSZIkSZIk7a9xoBPMu0fwqVtwh/nt8MEHH6R1WfQSY1jOpnK2z1yLBMtiCeXnWOrmZGzLUUcdldYEUphjsbzU9fIibwR4CLjQE4x5DLds2ZKGC63bB7npQY9BeraW80JPvDpsF3xGWTnIVdZ2eXNFb0qGrK1TDaC13Z4DvT6rYmjWusDooHLrP1fu9nPbz3QgL9XPpx28+OKL6XEEZ6vuv//+1LOXQGm1PHVy00uSJEmSJEmSpP0NFeiM+fm6BcI0GAIdDJNZt7z77rudVPvQw4yF1xhek+FMCSLdeOONKQBYlZP+lltuSUEqerYSuCM9y6efftpJMRptllf95dR/E21v/0BgHlCUA83MZQvmViUYSs/e6IkbQfHysZObXpIkSZIkSZIk9TZUoJOb9QQ1FixYMNk7qyyCGnXzEBKwwq5du9K6iba337aPP/44relRyDCZdUtd7zbqnNcYXpNeqBs3bkzPEwCs6zk3aPoLLrggrQkslufDjN5s3TDXZVn17zBd5R1U9MyMIFM/09Xe5s6d23n0FYJjiGBZN72G921a/yHy0E3T7Q/aftp25513pt6na9eu7Tzzle9///tpXd6/b775ZlrX9fKM9lCePzQ3vSRJkiRJkiRJ6m2oQCdefvnlFOSMG/VlO3bsSGsCoeWA1KpVq9J7mNdwmKFi295+25577rm0pkcsQ8Y2tXfv3s6jwfRLH8OkgnrtNg8r8y5ixYoVaR2WL1/eeTTVgSpvN48++mha04O1LrhVNV3tjWBluX4I/EWv6QiWVcUwu93mkETT+o/g3tlnn90zkJq7/dz2U0b9MxcoQxmPau7WqFvaeznYymedc8456fGvfvWrtMbTTz+d1rSHpUuXpsegZzTtIX4IEnLTS5IkSZIkSZKk3g6bmJj4svO4L4JBixcvTkNQ0jsrMHdiBBvobVcO9jC8aASFGHqUG/oRFGV+uhi6samm26fnFughOCqxzagD/iZP9ESMuou/A0GO6ElJoCzmeqQcb7/9drF+/fr0N5iXkiFbSUNalMvL8/TEDLnpmZuToF/kI9Kyv8k7CMZs3rw5BWSo9xg+Nt5Db0R6ShLMQbV+2yxvEwTkGK4X5fyAuqjmP6e95baHKC/Psc3du3enPJEPUPcEBSOoWRbbQ9QX2yA/HJ8hp/4DQb877rgjpSm/h3193333TTnec7bfpP2Ecnmr55ymOIdt2rRpcn+yHxD1T5unt3NZOR+kJ//dzoXITS9JkiRJkiRJkrr72te//vX/1Xnc13nnnZeGXaTH3y9/+cvOs/uGdYzhP3/xi19M6RH4zDPPFN/61rfS3Hbf+973ijlz5qQb/H/9139dbNu2rZOquabbj15jDz74YFqPQmwz6oC/CVYxl2nUXfwd6AX3r//6r8Xs2bNT0GPevHnF0Ucfncrxz//8z5O95PAnf/InxXHHHZeGTiVNpKO8//iP/5iCzwSMQm76F154ofjOd75TfPvb3075+M///M/Ui5F0UbZZs2aloWwp329+85uUd7Yb+f71r39d/M3f/E3xZ3/2Zyl9tX7bLG8Tr7zySm1+WAi80YNvz549ndR57S23PTA0LM/z3N/93d8Vp59+evHd7343lZE6v/nmm2uDnOB4JC15i/zTE5OgIWUMOfUfKD9zVBKQK7/nsMMOS/VT7uWYs/1e7efkk09O7+l2fP73f/938cMf/jCVkTTDtgOwDfYVef/93//9VJ/kiXbwD//wD7VBYOqdevjGN76R2gPHBz1VyVNd0DI3vSRJkiRJkiRJ6i6rR6c0CIblXLlyZQocLVmypPOs+in36Cz3+pUkSZIkSZIkSdL+hp6jUwoMccpQsDE/Y8zBKEmSJEmSJEmSJI2agU41Rg9E5p2M5d57703zXTIfI8N9MpenJEmSJEmSJEmS1AYDnRoZ5o9k2FXmqlyzZk3X+SQlSZIkSZIkSZKkYTlHpyRJkiRJkiRJkqSxY49OSZIkSZIkSZIkSWPHQKckSZIkSZIkSZKksWOgU5IkSZIkSZIkSdLYMdApSZIkSZIkSZIkaewcNjEx8WXn8SHnmGOOKVavXl3Mnz8/PcaHH35YLF26ND2WZrJnn3228+grixYt6jwab1G2g6U8kiRJkiRJkiRp9LJ6dK5duzYFIFguuuiizrP73HPPPbXPz1QENjdt2lSce+65xaxZs4rXX389LTt37uykkGa2aLMsbeIY4biOHwMcKij3LbfcMnlu4/xXhx9GbNmyZfLceOedd6b3dpObXpIkSZIkSZIk1Ws8dO3ChQs7j8bTihUriuOPP7547733iquuuqq47rrr0rJ+/fpOCmlmizbL0iaOjxtvvLE488wzO88c3AjoEty87bbbigsuuKA49dRT03ni3//93zspvkLwc+XKlelcQsCZHuELFixI760LXuamlyRJkiRJkiRJ3TUOdHJzfpx7eJ122mlp/dhjj6VggyRFT2+Cm5wXHnroodQD88orryweeOCBTqp9TjnllGLx4sXp8d13350CzqR9/vnn03MEiMty00uSJEmSJEmSpN4aBTrp3XTkkUcWF198ceeZ8RNB2kceeSStJYk5e6O3Jb2+CW52+yHEhRdemNavvvrqlPPI5s2bi88++ywFS8u9NHPTS5IkSZIkSZKk3g6bmJj4svO4L4ZdpEfSk08+WZx11lnFnj17JofNZKhHbtRv3LixeOqpp9JzgfeRPoKLBBGeeeaZkQUZm2yfufGwaNGitB6F2Gb0AsOGDRuKK664IvWAJWBy8803F2+88UZ6LVTzTyB5+/bt+/UgA2muueaa4oQTTkj1XUa5q8OY5qZnvkDyCoIv5OWFF16ozQsIzET5wDYpP73T+Ly6+m2zvE0w/yTt+qSTTkoBfBCMop1X2zIGbW+57YF8MEQsn/vOO+8Ul19+efoM9gP5ISDWLeiW054Hqf/ISz/D7t9q+6Gct95662RddisP71u3bl2xe/fuYs2aNV3rJQc9Lu+9995U37TfftuMY2Xbtm3FXXfd1Xl2nzgfll/LTS9JkiRJkiRJknprPHTtzp070415ggO9MPccQSSCHgSECHrwPuapu/rqqzupmmt7+02cfvrpKThI0IweYh999FHKF3m89NJLO6n2qeafhR5lBFoIGFUxrCbpKSPbjPew7Nq1q5PqK7npyWu8/umnn6b3kRcCMVURbCJ4Q3CI98ydO7e4/vrr0/vqtF3eXKtWrUoBPcpAedkuAS7+5vlqG2rS3nLaAwjqsr3PP/88fQbvo66pi2ENWv979+6dfJ19i2r9s1Tl7N+69nPsscem4G8/559/fqoXtj2quUPLPS7nz5+fApNPPPFECrpSLspUdvjhh6f1W2+9lV6jLUVA+913303rWbNmpTVy00uSJEmSJEmSpN4aBzq3bt2a1nWBmkAggwU33XRT6n3HXHf0WkLc5G8qZ/ukI1gXSyg/xxLbGwY98tavX58e0+uVx6+99lr6m0BOIH98HoG1a6+9NuWfhbIQ+Fm4cOGU4Aq97Ajs8BrvpazxHpb4zJCbHjwXr/Me8hXBvHJ9gp54BJsIDBHIive8//77nRRT8Vqb5c1FkP6yyy5Lj6PXJdtlTRuKwF4g79E+ctrzoO0hUNfkJ8pLXVEH1MUwwfuc+mfeyHidesDDDz88+VwsZTnbR7f2Q9p+duzYkdKRt5deeqnz7HCOO+64tP6P//iPFIBl39BjlDxTrp/97GdT8l+2bNmy1JYIUEcb6SU3vSRJkiRJkiRJ2l/jQCfDbRJkYIjKbuh1BQIZBE4CQzMSpCDIQTCrqZztz5kzJwWQYgnl51hI16bo1YUzzjgjrek1Vh7OlrJQJvLfrbcaQ3p2C7rUyU0fyFcE5U488cS0Dgz1CoLeBLfCgw8+2Hk01XSWdxARpOfzq8Oq0oYYErXcrtpoz+X2EKjLcn6oK+oM9A5tapj6H0Tu9nPbTxnbXLJkSQoGl987jKOOOiqtTzvttOKnP/1pCrqy/QjU0v4IUNbJ7Ylpz01JkiRJkiRJkobXONAJ5t3j5n+34A5DcOKDDz5I67LoJTZv3ry0biJn+8y1SLAsllB+jqVuTsa2RGCF3mzMsVhe6np5kTcCPASM6AnGkJpbtmxJw2rW7YPc9KDHID1by3mhJ14dtgs+o6wc5Cpru7y5ojflJ598ktZV1QBa2+050OuziuFOURcYHVRu/efK3X5u+5kuDMtdPg+Qv+eeey49jl6fVffff3/q2UtP3Gp56uSmlyRJkiRJkiRJ+xsq0Pn444+ndbdAmAZDoIPhTeuWmLsv0LuMhddi/kOCSMwnSQCwKif9LbfckoJU9GwlcEd6FuauHKU2y6v+cuq/iba33zbmU61655130jqCufjiiy/Smvk8CYrTszd64kZQvHzs5KaXJEmSJEmSJEm9DRXo5GY9QY0FCxZM9s4qi6BG3TyEBKywa9eutG6i7e237eOPP05rehTefvvttUtd7zbqnNeY05BeqBs3bkzPEwCs6zk3aPoLLrggrQkslufDfPHFF9Pz3TDXZVn17zBd5R1U9MyMIFM/09Xe5s6d23n0FYJjiGBZN72G921a/yHy0E3T7Q/aftoW+ed8VvX9738/rcv7980330zrGIK3LNpDef7Q3PSSJEmSJEmSJKm3oQKdePnll1OQM27Ul+3YsSOtCRyUA1KrVq1K72Heu2GGim17+22L4TDpEcuQsU3t3bu382gw/dLHMKmgXrvNw8q8i1ixYkVah+XLl3ceTXWgytvNo48+mtb0YF27dm163Mt0tTeCleX6IfAXvaYjWFYVw+x2m0MSTes/gntnn312z0Bq7vZz208Z9c9coAxl3CtPOf7pn/4prcl/ef/y+JxzzkmPy709n3766bSmPTCfZ6BnNO0hfggSctNLkiRJkiRJkqTeDpuYmPiy87gvgkGLFy9OQ1DSOyswd2IEG+htVw72MLxoBA0YepQb+hEUZX66GLqxqabbZ95A0ENwVGKbUQf8TZ7oiRh1F38HghzRk5JAWcz1SDnefvvtYv369elvMC8lQ7aShrQol5fn6YkZctMzNydBv8hHpGV/k3cQjNm8eXMKyFDvMXxsvIfeiPSUJJiDav22Wd4mCMgxXC/K+QF1Uc1/TnvLbQ9RXp5jm7t37055Ih+g7gkKRlCzLLaHqC+2QX44PkNO/QcCrXfccUdKU34P+/q+++6bcrznbL9J+wnl8lbPOcMgcBr7k/2AqH/aPL2dy8r5ID3573YuRG56SZIkSZIkSZLU3de+/vWv/6/O477OO++8NOwiPf5++ctfdp7dN6xjDP/5i1/8YkqPwGeeeab41re+VRx++OHF9773vWLOnDnpBv9f//VfF9u2beukaq7p9qPX2IMPPpjWoxDbjDrgb4JVzGUadRd/B3rB/eu//msxe/bsFPSYN29ecfTRR6dy/PM///NkLzn8yZ/8SXHccceloVNJE+ko7z/+4z+m4DMBo5Cbnt5q3/nOd4pvf/vbKR//+Z//mXoxki7KNmvWrDSULeX7zW9+k/LOdiPfv/71r4u/+Zu/Kf7sz/4spa/Wb5vlbeKVV16pzQ8Lgbdf/epXxZ49ezqp89pbbntgaFie57m/+7u/K04//fTiu9/9biojdX7zzTfXBjnB8Uha8hb5pycmQUPKGHLqP1B+5qgkIFd+z2GHHZbqhyXkbL9X+zn55JPTe7odn//93/9d/PCHP0xlJM2w7SCwryjnxMREqk/yRDugN2YEZcuod+rhG9/4RmoPHB/0VCVPdUHL3PSSJEmSJEmSJKm7rB6d0iAYlnPlypUp+LRkyZLOs+qn3KOz3OtXkiRJkiRJkiRJ+xt6jk4pMMQpQ8HG/IwxB6MkSZIkSZIkSZI0agY61Rg9EJl3MpZ77703zXfJfIwM98lcnpIkSZIkSZIkSVIbDHRqZJg/kmFXmatyzZo1XeeTlCRJkiRJkiRJkoblHJ2SJEmSJEmSJEmSxo49OiVJkiRJkiRJkiSNHQOdkiRJkiRJkiRJksaOgU5JkiRJkiRJkiRJY8dApyRJkiRJkiRJkqSxc9jExMSXnceHnGOOOaZYvXp1MX/+/PQYH374YbF06dL0WJrJnn322c6jryxatKjzaLxF2Q6W8kiSJEmSJEmSpNHLCnSuXbu2WLx4cXq8cePG4qmnnkqPcc899xSnnnrqfs/PVAQ2N23aVBx//PHFZ599Vrz33nvp+V27dhXr169Pj6WZjGMucOyhjcDgueeeW8yZM6d46aWX0g8BpsOBCHTWBY7rXHvttcUbb7zR+atIP4y45JJL0rkEr776arF169bi+eefT39X5aaXJEmSJEmSJEn1Gg9du3Dhws6j8bRixYoUaCDAedVVVxXXXXddWgxyalxEm2VpE8fHjTfeWJx55pmdZw5unBNef/31KUsEeHmtHOTkxx8rV65M55JIt2DBguK2225LAeKq3PSSJEmSJEmSJKm7xoFObs7HcK/j6LTTTkvrxx57bNp6qUma+R5++OEpQWSWzz//PL22ffv2tMYpp5wy2cP97rvvTunorRk9MwkQl+WmlyRJkiRJkiRJvTUKdNKr6cgjjywuvvjizjPjJ4K0jzzySFpLUh0ClDHM7OOPP57WuPDCC9OaoWfL55HNmzen4bAZTrjcSzM3vSRJkiRJkiRJ6q3RHJ1PPvlkcdZZZxV79uxJvZLQa45O3kf6CC4yZOMzzzwzsiBjk+23MQdgbPOhhx5KPbWwYcOG4oorrkg9YOk5evPNN08Z+hLV/BNIpufYAw88kP4uI80111xTnHDCCZPzMgbKHfsj5Ka/8847U14Rc5e+8MILtXkBgZkoH9gm5ad3Gp9XV79tlreJiy66KLXrk046KQXwQTCKdl433+yg7S23PZAPhojlc995553i8ssvT5/BfiA/BMS69T7Oac+D1H/kpZ9h92+1/VDOW2+9dbIuu5WH961bt67YvXt3sWbNmpH0yo45T9lf5fkyKQ/tg7zdcMMNnWe/Ola2bdtW3HXXXZ1n94nzYfm13PSSJEmSJEmSJKm3xkPX7ty5M92Yp7dTL8w9R5CAoAcBIYIevI956q6++upOquba3n4Tp59+egoOEjRbvXp18dFHH6V8kcdLL720k2qfav5Z6D1GoJAAS9WmTZtSesrINuM9LLt27eqk+kpuevIar3/66afpfeQlgkBlEWwieEMwjvfMnTu3uP7669P76rRd3lyrVq1KAT3KQHnZLkEz/ub5ahtq0t5y2gMI6rI9hkvlM3gfdU1dDGvQ+t+7d+/k6+xbVOufpSpn/9a1n2OPPTYFf/s5//zzU72w7VHNHUrQnKUc5ARBW7zyyitpHQ4//PC0fuutt1J5aUsR0H733XfTetasWWmN3PSSJEmSJEmSJKm3xoHOrVu3pnVdoCYQyGDBTTfdlIIIV155Zeq1hLjJ31TO9klHsC6WUH6OJbY3DHrkrV+/Pj2m1yuPX3vttfQ3gZxA/vg8AmvXXnvtZKCFshD4WbhwYQqIBHrZEdjhNd5LWeM9LPGZITc9eC5e5z3kK4J55foEPfEINtHTjUBWvOf999/vpJiK19osby6C9Jdddll6HL0u2S5r2lAE9gJ5j/aR054HbQ+BuiY/UV7qijqgLoYJ3ufUP8G+eJ16QN3clWU520e39kPafnbs2JHSkbeXXnqp8+zoUZ7Ic3nY2qply5altkSAOtpIL7npJUmSJEmSJEnS/hoHOhlukyBD9HaqQ68rEMgo95JiaEaCFAQ5CGY1lbP9OXPmpABSLKH8HAvp2hS9unDGGWek9RNPPDFlOFvKQpnIf7feagzpWQ4a9ZObPpCvCMqdeOKJaR0Y6hUEvQluhQcffLDzaKrpLO8gIkjP51eHVaUNMSRquV210Z7L7SFQl+X8UFfUGegd2tQw9T+I3O3ntp8ytrlkyZIUDC6/d9R+9KMfpTX57/U5uT0x7bkpSZIkSZIkSdLwGgc6wbx7BJ+6BXcYghMffPBBWpdFL7F58+aldRM522euRYJlsYTycyx1czK25aijjkprerMxx2J5qevlRd4I8BAwoicY8xhu2bIlDRdatw9y04Meg/RsLeeFnnh12C74jLJykKus7fLmit6Un3zySVpXVQNbbbfnQK/PKoY7RV1gdFC59Z8rd/u57edAOO2009K6Omxt1f3335969lbn9+wmN70kSZIkSZIkSdrfUIHOGMqxWyBMgyHQwfCmdUvM3RcYBpSF12L+Q4JIzCdJALAqJ/0tt9ySglT0bCVwR3oW5q4cpTbLq/5y6r+Jtrc/XWhnvYat/eKLL9J6/vz5KShOz97oiRtB8fKxk5tekiRJkiRJkiT1NlSgk5v1BDUWLFgw2TurLIIadfMQErDCrl270rqJtrffto8//jit6VF4++231y51vduoc15jTkN6oW7cuDE9T2CGpWrQ9BdccEFaE1gsz4f54osvpue7Ya7LsurfYbrKO6jomRlBpn6mq73NnTu38+grBMcQwbJueg3v27T+Q+Shm6bbH7T9TLd+w9a++eabaR1D8JZFeyjPH5qbXpIkSZIkSZIk9TZUoBMvv/xyCnLGjfqyHTt2pDWB0HJAatWqVek9zGs4zFCxbW+/bc8991xa0yOWIWOb2rt3b+fRYPqlj2FSQb12m4eVABBWrFiR1mH58uWdR1MdqPJ28+ijj6Y1PVjXrl2bHvcyXe2NYGW5fgj8Ra/pCJZVRSBu2bJlaV2naf1H8Pbss8/uGUjN3X5u+ymj/pkLlKGMe+VpGP2GrX366afTmvawdOnS9Bj0jKY9xA9BQm56SZIkSZIkSZLU22ETExNfdh73RTBo8eLFaQhKemcF5k6MYAO97crBHoYXjaAQQ49yQz+CosxPF0M3NtV0+8wbCHoIjkpsM+qAv8kTPRGj7uLvQJAjelISKIu5HinH22+/Xaxfvz79DealZMhW0pAW5fLyPD0xQ2565uYk6Bf5iLTsb/IOgjGbN29OARnqPYaPjffQG5GekgRzUK3fNsvbBAE5hutFOT+gLqr5z2lvue0hystzbHP37t0pT+QD1D1BwQhqlsX2EPXFNsgPx2fIqf9AoPWOO+5IacrvYV/fd999U473nO03aT+hXN7qOWcUynkjKFlX5yjng/1G/rudC5GbXpIkSZIkSZIkdTd0j07s3Lmz82h/Mb8iQQwCNgRfuMHPTf1hg5xoe/ttI/BDXqN3G2WIclTNmzcvBVx4rZyO8lIHa9as6aTcJzf9unXrJnuUkfaII45I6cpBbYIyc+bMSY9JS97ZHoEs3rNnz55i69at6fU6bZa3CdpIXX5YaFPVYVSnq72xLeqfzyAISF13C3KCfbR9+/aUNuqLQOnExEQnxT459R8YbnbDhg37vWfWrFnF7Nmz03MhZ/u92g/12wu9ayM42sZwr/2GrQ3UOwHuaA8cH7yHctUFLXPTS5IkSZIkSZKk7rJ6dEqDoAfcypUrUyBqyZIlnWfVT7lHZ7nXryRJkiRJkiRJkvY3kh6dEuj9yFCwMT9j9OqTJEmSJEmSJEmSRs1ApxqjByLzTsZy7733pvkuGYaUoTmZy1OSJEmSJEmSJElqg4FOjQxzGTLs6rZt29L8mb3mNpQkSZIkSZIkSZKG4RydkiRJkiRJkiRJksaOPTolSZIkSZIkSZIkjR0DnZIkSZIkSZIkSZLGjoFOSZIkSZIkSZIkSWPHQKckSZIkSZIkSZKksXPYxMTEl53Hh5xjjjmmWL16dTF//vz0GB9++GGxdOnS9FiayZ599tnOo68sWrSo82i8RdkOlvJIkiRJkiRJkqTRy+rRuXbt2hSAYLnooos6z+5zzz331D4/UxHY3LRpU3HuuecWs2bNKl5//fW07Ny5s5NCmtmizbK0iWOE4zp+DHAwo4y33XZb8cgjj0ye67Zs2ZLOfd3wwwjSRPo777wz1Vk3ueklSZIkSZIkSVK9xkPXLly4sPNoPK1YsaI4/vjji/fee6+46qqriuuuuy4t69ev76SQZrZosyxt4vi48cYbizPPPLPzzMGp/OMHHhNA5vzAeWLx4sUpAFpFAHTlypUpDenpEb5gwYKUti54mZtekiRJkiRJkiR11zjQyc35ce7hddppp6X1Y489loINkg5tF198cQpAxvDVBJCvvPLK4u67706vE4g85ZRT0mPwmAAoSEN63vf888+n5wgQl+WmlyRJkiRJkiRJvTUKdNLL6cgjj0yBgXEVQVqGqJSkb37zm2nN8NXlHz9wjoi/TzjhhLTGhRdemNavvvrqlPPI5s2bi88++6w49dRTp/TSzE0vSZIkSZIkSZJ6O2xiYuLLzuO+GHaRHklPPvlkcdZZZxV79uyZHDaTOTq5Ub9x48biqaeeSs8F3kf6CC4yZOMzzzwzsiBjk+0zNx4WLVqU1qMQ23zooYdSTy1s2LChuOKKK1IPWIIlN998c/HGG2+k10I1/wSSt2/fXjzwwAPp7zLSXHPNNSngQn2XUe7qMKa56ZkvkLyC4At5eeGFF2rzAgIzUT6wTcpP7zQ+r65+2yxvE8w/Sbs+6aSTUgAfBKNo59W2jEHbW257IB8MEcvnvvPOO8Xll1+ePoP9QH4IiJUDcGU57XmQ+o+89DPs/q22H8p56623TtZlt/LwvnXr1hW7d+8u1qxZ07VeckSZq+2KcpAf9gPtOj4rjpVt27YVd911V3ouxPmw/FpuekmSJEmSJEmS1NvXvv71r/+vzuO+zjvvvBQMeuutt4qPPvqo+KM/+qM07CIBT3p3Hn300cUvfvGL9Hpg7rkLLrigmDVrVgogECz43ve+V5x99tnFYYcdVrzyyiudlM003f7y5cvT+sEHH0zrUYht8rnUwcknn5wCG//yL/9SfO1rXyuOPfbY4nd+53eKX/7ylykdqvkncEP+Tz/99OJb3/rWlLQgIEIQibomgLRr1670HhYeP/fcc52U++SmP+ecc4ovvvgivU5ev/vd76a8/PEf/3Hx+OOPd1LtE8Gm73znO6ne33777WLu3LkpPWVAtX7bLm+uVatWFX/5l39ZfPvb3y4++eST4te//nXx5ZdfFieeeGJq79U2lNPectvD/Pnz02f+13/9V7FkyZJ0XFHGefPmpTpmH/z93/99Sls1aHsetP4J7v3BH/xBep3g7+/+7u/uV/8s1TaRs3/r2g9p/vAP/zDtD3Qrz1/8xV8U3//+94s5c+akoHD5nNMU26C9c16jrn/wgx+k/fE//sf/SPuQYGc5/5deemlqlz//+c+LvXv3poA87//Vr36V3su5kn0d78lNL0mSJEmSJEmSems8R+fWrVvTmpv33RDIYMFNN92Uekkx5x29lhC93JrK2T7pCJrFEsrPscT2hkGPvPXr16fHBKt4/Nprr6W/CW4F8sfn0UPs2muvTflnoSwEfhYuXDjZKw70OGMOQV7jvZQ13sMSnxly04Pn4nXeQ74IcNHbrFyfoCceQTB64dHTLd7z/vvvd1JMxWttljcXcyZedtll6XH0umS7rGlDlJtgXSDv0T5y2vOg7SFQ1+QnyktdUQfUxdVXX91JlS+n/vkBQ7xOPeDhhx+efC6Wspzto1v7IW0/O3bsSOnI20svvdR5dnjsG3qlE7Cnly8L++wnP/lJ117NWLZsWWpLK1eunGwjveSmlyRJkiRJkiRJ+2sc6GS4TYIM9Lbr5vzzz09rAhkETgJDMxKkIMhBMKupnO3T84sAUiyh/BwL6dp0+OGHdx4VxRlnnJHWTzzxxJThbCkLZSL/Z555ZufZqRjSsxw06ic3fSBfEZSjl2MZPdBA0DuG80S3XnjTWd5BRJCez68GsWhDDIlabldttOdyewjUZTk/1BV1BnpGNjVM/Q8id/u57aeMbdLrlWBw+b3DuuWWW9LwtZ9//nkKUDPkLkHPO+64o2eQmR6sOXLTS5IkSZIkSZKk/TUOdIIgAMGnbsEd5lXEBx98kNZl0UuMYTmbytk+cy0SLIsllJ9jqZuTsS1HHXVUWtObjTkWy0tdLy/yRoCHgBE9wRhKc8uWLWm40Lp9kJseBHPo2VrOCz3x6rBd8Bll5SBXWdvlzRW9KRmytk41gNZ2ew70IKyKoVnrAqODyq3/XLnbz20/bWNuUYbdJShLAPX2229PPTxXrFhRfPrpp6lc3drd/fffn3r20hO3Wp46ueklSZIkSZIkSdL+hgp0xvx83QJhGgyBDnqP1S3vvvtuJ9U+DAPKwmsMq8pwpgSR6IVGALAqJz292Qjm0LOVwB3pWQjyjFKb5VV/OfXfRNvbb0sEsslnGQHvF198MT1mjtXAXLZgblXS0LM3euLGtsrHTm56SZIkSZIkSZLU21CBTm7WE9Tg5n/0ziqLoEbdPIQErLBr1660bqLt7bft448/Tmt6FNJ7rG6p691GnfMacxrSC5U5BUEAsK7n3KDp6c0GAovl+TAjyNMNc12WVf8O01XeQUXPzAgy9TNd7Y2hUqsIjiGCZd30Gt63af2HyEM3Tbc/aPuZad588820jiF4y6I9lOcPzU0vSZIkSZIkSZJ6GyrQiZdffjkFOeNGfdmOHTvSmkBoOSC1atWq9B7mNRxmqNi2t9+25557Lq3pEdtr/r9+9u7d23k0mH7pY5hUUK/d5mFliE8wtGfZ8uXLO4+mOlDl7ebRRx9Na3qwMmxpP9PV3ghWluuHwF/0mo5gWVUMs7ts2bK0rtO0/iN4e/bZZ/cMpOZuP7f9lFH/zAXKUMajmrs1ArWLFy+esk0+K+r/3//939MaTz/9dFrTHpYuXZoeg57RtIf4IUjITS9JkiRJkiRJkno7bGJi4svO474IBhEEYGhHemcF5k6MwAC97crBHoYXjaAQQ49yQz+CosxPF0M3NtV0+8wbCHoIjkpsM+qAv8kTPRGj7uLvQJAjelISKIu5HinH22+/neYIDMwPyJCtpCEtyuXleXpihtz0zM1J0C/yEWnZ3+QdBGM2b96cAjLUewwfG++hNyI9JQnmoFq/bZa3CQJyDNeLcn5AXVTzn9PecttDlJfn2Obu3btTnsgHqHuCghHULIvtIeqLbZAfjs+QU/+BQOsdd9yR0pTfw76+7777phzvOdtv0n5CubzVc05T3coZ9c/f1fZWzgf7jfx3OxciN70kSZIkSZIkSerua1//+tf/V+dxX+edd14adpEef7/85S87zxbF97///cnhP3/xi19M6RH4zDPPFN/61reKww8/vPje975XzJkzJ93g/+u//uti27ZtnVTNNd1+9Bp78MEH03oUYptRB/xNsIq5TKPu4u9AL7h//dd/LWbPnp2CHvPmzSuOPvroVI5//ud/nuwlhz/5kz8pjjvuuDR0KmkiHeX9x3/8xxR8JkATctO/8MILxXe+853i29/+dsrHf/7nf6ZejKSLss2aNSsNZUv5fvOb36S8s93I969//evib/7mb4o/+7M/S+mr9dtmeZt45ZVXavPDQmDrV7/6VbFnz55O6rz2ltseGBqW53nu7/7u74rTTz+9+O53v5vKSJ3ffPPNtUFOcDySlrxF/umJSdCQMoac+g+U/5133kkBufJ7DjvssFQ/LCFn+73az8knn5ze0+34/O///u/ihz/8YSojaYZtB6Cc1DP5IP/UJ49pB//wD/9Q296od+rhG9/4RmoPHB/0VCVPdUHL3PSSJEmSJEmSJKm7rB6d0iAYlnPlypUpKLRkyZLOs+qn3KOz3OtXkiRJkiRJkiRJ+xt6jk4pMPQnQ8HG/IwxB6MkSZIkSZIkSZI0agY61Rg9EJl3MpZ77703zXfJHIcM98lcnpIkSZIkSZIkSVIbDHRqZJg/kmFXmatyzZo1XeeTlCRJkiRJkiRJkoblHJ2SJEmSJEmSJEmSxo49OiVJkiRJkiRJkiSNHQOdkiRJkiRJkiRJksaOgU5JkiRJkiRJkiRJY8dApyRJkiRJkiRJkqSxc9jExMSXnceHnGOOOaZYvXp1MX/+/PQYH374YbF06dL0WJrJnn322c6jryxatKjzaLxF2Q6W8kiSJEmSJEmSpNHL6tG5du3aFIBgueiiizrP7nPPPffUPj9TEdjctGlTce655xazZs0qXn/99bTs3Lmzk0Ka2aLNsrSJY4TjOn4McDCjjJznHnnkkclz3ZYtW9Jz3fDDCNJE+jvvvDPVWTe56SVJkiRJkiRJUr3GQ9cuXLiw82g8rVixojj++OOL9957r7jqqquK6667Li3r16/vpJBmtmizLG3i+LjxxhuLM888s/PMwSl+/LB48eL0mAAy5wfOEzx32223dVJ+hQDoypUrUxrS0yN8wYIFKW1d8DI3vSRJkiRJkiRJ6q5xoJOb8+Pcw+u0005L68ceeywFGyQd2pYtWzb54wd6XRJAvvLKK4uNGzem1wlEloORp5xySgqA4u67707ped/zzz+fniNAXJabXpIkSZIkSZIk9dYo0Ekg4MgjjywuvvjizjPjJ4K0DFEpSfHjh+3bt0/58cNTTz01GYw8//zz0xoXXnhhWr/66qtTziObN28uPvvss+LUU0+dEhjNTS9JkiRJkiRJknprFOh87bXXUiDgnHPO6TzTW3XOO+bzpCfTqLS9/UHF51999dXFE088kRYCF8zBx/PkkV5dVdX8M38f26gTcwjGnKjlheeqctNHXlnIP2m65QXl8sU2eS4+r06b5W2C+ScpA+WNbfN3t/lmq/knH3XtLV4ftD3weTzP9tlefAbvY2jTUfWgHqT+Iy8sBODA8LXxXCx1cvZvtf3weJBy8j7qhW2Pql7Crl27Oo++8sknn3QefeWkk05K6zfffDOtA+dGfgyC8nC/ueklSZIkSZIkSVJvjYeu3blzZwqA1AXuygjQVOe8433MU9crgDaotrffxOmnn1688MILqdfr6tWri48++ijlizxeeumlnVT7VPPPwvCZDGNJwKgq5hCkjGwz3sNSF6DJTU9e4/VPP/00vY+81AUVCTatW7cuDWNMjzTeM3fu3OL6669P76vTdnlzrVq1KgXwKAPlZbsEnvib56ttqEl7y2kPOOGEE9L2Pv/88/QZvI+6pi6GNWj97927d/J19i2q9c9SlbN/69rPscceW9x8882dFN3Rs5J6YdujDg7Onj278+gr5Kvq8MMPT+u33norlZe2FAHvd999N61nzZqV1shNL0mSJEmSJEmSemsc6Ny6dWta1wVqAoEMFtx0002Tc95t27YtPTdsr8uc7ZOOYF0sofwcS2xvGE8++WSxfv369HjPnj3pMb1gUQ6YkD8+j8Datddem/LPQlkI/CxcuDAFRAK97Ajs8BrvpazxHpb4zJCbHjwXr/Me8hXBvHJ94oorrkjBJobiJJAV73n//fc7KabitTbLm4sg/WWXXZYeP/TQQ+kz2C5r2lAE9gJ5j/aR054HbQ+BuiY/UV7qijqgLoYJ3ufUP0O1xuvUAx5++OHJ52Ipy9k+urUf0vazY8eOlI68vfTSS51nh/Pxxx+n9SWXXDIln9R59Mbshvk9aUsEqKON9JKbXpIkSZIkSZIk7a9xoPONN95IQYazzjqr88z+Yj47Ahkxxx3uuuuuFKQgyEEwq6mc7c+ZMycFkGIJ5edYSNem6NWFM844I60ZgpP6DJSFMpH/br3VFi1aNCUY009u+kC+Iih34oknpnWI4A9Bb4Jb4cEHH+w8mmo6yzuICNLz+Q888EB6HGhDa9asmdKu2mjP5fYQqMtyfqgr6gz0Dm1qmPofRO72c9tPGdtcsmRJCgaX3zsMPpf9SECZoXcZFpeyXHDBBSn/veT2xLTnpiRJkiRJkiRJw2sc6MT27dtT8KlbcIchOPHBBx+kdVn0Eps3b15aN5Gz/aeeeioFy2IJ5edYSDddjjrqqLSmN1vMURhLXS8v8kaAh4ARPcEiGMNwoXX7IDc96L1Gz9ZyXuiJV4ftgs8oKwe5ytoub67oTVk3/yKqAbS223Og12cVw52iLjA6qNz6z5W7/dz20zY+d8OGDSmoScDziCOOSI8JeB933HEpTbeA5/3335969tITt1qeOrnpJUmSJEmSJEnS/oYKdD7++ONp3S0QpsEQ6GB407ol5u4LDAPKwmsx/yFBJOaTJABYlZP+lltuSUEqerYSuCM9C3NXjlKb5VV/OfXfRNvbbxN5v+GGG1JvUYbRpe3RC5V2R/Cz/EOIL774Iq3nz5+fguL07I2euBEULx87ueklSZIkSZIkSVJvQwU6uVlPYGDBggWTvbPKIqhRNw8hgQPs2rUrrZtoe/ttizkB6VF4++231y51vduoc15jTkN6oW7cuDE9TwCwrufcoOkZohMEd8rzYb744ovp+W6Y67Ks+neYrvIOKnpmRpCpn+lqb3Pnzu08+grBMUSwrJtew/s2rf8Qeeim6fYHbT8HAvX54x//OD1+7rnn0jq8+eabaV03f2e0h/L8obnpJUmSJEmSJElSb0MFOvHyyy+nIGfcqC/bsWNHWhMILQekVq1ald5T7SGVq+3tty0CJ/SIZcjYpvbu3dt5NJh+6WOYVFCv3eZhjWE8V6xYkdZh+fLlnUdTHajydvPoo4+mNT1Y165dmx73Ml3tjeBauX4I/EWv6QiWVcUwu8uWLUvrOk3rP4K3Z599ds9Aau72c9tPGfXP/JkMZdwrT03FPmBoWc5t9HAmUFv29NNPpzXtgd6fgZ7RtIf4IUjITS9JkiRJkiRJkno7bGJi4svO474IBi1evDgNQVm+6c/ciRFsoLddOdjD8KIRFGLoUW7oR1CUIEIM3dhU0+0zbyDoITgqsc2oA/4mT/REjLqLvwNBjuhJSaAs5nqkHG+//Xaxfv369DeYl5IhW0lDWpTLy/P0xAy56Zmbk6Bf5CPSsr/JOwjGbN68OQVkqPcYPjbeQ29EekoSzEG1ftssbxMEsxiuF+X8gLqo5j+nveW2hygvz7HN3bt3pzyRD1D3BAUjqFkW20PUF9sgPxyfIaf+A4HWO+64I6Upv4d9fd9990053nO236T9hHJ5q+ecYZD/0047bUrwlLmIf/azn/Wtd/Yb+e92LkRuekmSJEmSJEmS1N3QPTqxc+fOzqP9xfyKBDEI2BB84QY/N/WHDXKi7e23jcAPeY3ebZQhylE1b968FGzhtXI6yksdrFmzppNyn9z069atm+xRRtojjjgipSsHtQnKzJkzJz0mLXlnewSyeM+ePXuKrVu3ptfrtFneJmgjdflhoU1Vh1GdrvbGtqh/PoMgIHXdLcgJ9hEBOdJGfREonZiY6KTYJ6f+A8PNbtiwYb/3zJo1q5g9e3Z6LuRsv1f7oX57oXdtBEdHOdzrN77xjVSuaGPXXnttKlOveifAHe2B44OyU666oGVuekmSJEmSJEmS1F1Wj05pEAzLuXLlyhSIWrJkSedZ9VPu0Vnu9StJkiRJkiRJkqT9jaRHpwR6PzIUbMzPGL36JEmSJEmSJEmSpFEz0KnG6IHIvJOx3HvvvWm+S4YhZWhO5vKUJEmSJEmSJEmS2mCgUyPDPIYMu7pt27Y0f2a3eQ0lSZIkSZIkSZKkYTlHpyRJkiRJkiRJkqSxY49OSZIkSZIkSZIkSWPHQKckSZIkSZIkSZKksWOgU5IkSZIkSZIkSdLYMdApSZIkSZIkSZIkaewcNjEx8WXnceuWLl1a/Omf/mnxzDPPFI888kjnWUmSptcxxxxTrF69upg/f356jA8//DB9T0nj7Nlnn03rRYsWpXUTsY2yYbY3auN+PTmd+R9Fe1C7DrXvo0Pt/0GvN9TNuJ+fD4XrjWH4/Tv9Rn2+zW2fB3N7lqSyQ+16XuMjK9C5du3aYvHixZ2/vvL6668P1LifeOKJ4sgjjyw+++yzYsmSJZ1n93fuuecWc+bMKV566aV0YTIq3fJfRlmuu+66zl+Hlnvuuac49dRTO399hX3w4osvFvfff/9I9kdb+3em4gvgkksuKY4//vj096uvvlps3bq1eP7559PfwzjllFOK5cuXT7mYf++994rt27cXDzzwQPq7rNs+Rre2n5P/3O3npqeM11xzTXHWWWdNKe9rr71W3H777envsibpzzzzzGLv3r2T5YvzRjU/df/I1Ln22muLN954Iz2m7f/5n/95sWDBgnQuBPX55JNPFk899VT6u6zt8mLQ/Ztb3ib1U0Zd/ehHPyrmzZuX2gh11K0MuaibTZs2pTLzfUQdYdeuXcX69evT45mo1/6tnp/L33cbN26c0r7iuCs/P13n/+nSZvuZ6eLYG+bGCu0hRLto40ZN0+uBQa8nZ6rpzP8o2sPBIPf7d7qM6/cRDtXjN8c471+1b9zPz4fC9cYw/P6dXm2cb3Pb53S155mmzftdTa7f2rx/1ev/8VHcnzG96bvhWBjl/Y26tk9e3n777XS81N2jK2vrev5AfF9rn9zzbe75E21+X4RGgU4a2549e9Jzc+fOnTxAH3roodrgSohK6FbgEOmqN2eHVZf/qkP5H8+o92r9RMPlpHfllVemx8Noa//OROVgA+2+fLzcdNNNQx3MV199dTpJxAmouv1t27YVd911V3ocou7Zl3whldW1/dz8524/Jz2fG/+8gPxQ9vibvJCnkJseUd7ya/Ec768LdNblPeqpfMywv6666qr0mPS8Vq7P6vEwneUF6Xvt39zy5qYPPL9hw4bJ8w5I1y1438Qtt9xSXHDBBWm7a9asGZsLqDheUN2/lOHmm2+evCAt79vqvq87B8dzbZ//2zYd7WemG/WNtTZv1NW1xUHE+6rn5XExnflvc/+Ni9zv3+k0rt9HOFSP3xzjvH/VvnE/Px8K1xvD8Pt3erV9vs3dn4fK/s+9X5SjyfVbbn7i3MC2q/cspvt+lOlNX04feF8b9zei7Zfv/8RncCzwmeSpm7au5w/E97WanW9zzp9o8/uirNEcnfTuoCGzEGghoIJ+UXzSUzkH+p/acv6rS3VHHIqq9UODo9FyAqbxazD0toyD+O677051yfESB2+cRIbBFyNfcGw3ts+vLXD22WendZ2HH354yj5mqbb9YfI/yPbLBkm/bNmy1AY5iUZ5CbxwTgG/PmEJuelx7LHHpvUnn3yS1oOoy/vnn3+eXmPfhJNPPjmtOV9yriRduT6jrkPb5W26fwctb8hJHxd/ccHFj2fIE+UYZZDqtNNOS+vHHntsbG46su+oF87F9IKlHqkXHvMrqLfeeqvrr+74RVZcQPQzzuf/6Wo/OvBomzPherKpcc//uMn9/p1O4/h9NKxDqf0fivtXkg4Ez7fTr+37XbnXb23fv2r7/ozpTV9Oj+m4v1GN73C8cJ953bp1Pe8hkZ68s9b4G+b/5UHOn9MRHwmNAp1V0WtskBupRuTHDw3vhRdeSI+/+c1vprX6u/DCC9OaIER5WOfNmzenwAFfVtUvshx8sRHk4ARSvpjn83D00UendVNt5z9X/PNCcKxcXs4pcXI8//zz0xq56XHUUUelddRhE5zAuYDB448/ntYgYMSFQLWX7XPPPZfWJ510UlqHtss7qv3brbzd9ErPnCq8xq97VqxYkdp4uSyjEt9V4zSXAMN3gAvjckCTxzfccEPtr/9Aei5UL7744s4zecbp/D9d7Uczw7hfT457/sdJ7vfvdBrH76NROFTa/6G6fyVpunm+nX5t3y/KvX5rOz9t358x/T6m/8p0399g2xx3fB73kBhmtxfyroND2/8vT2d8YSSBzl7oysqwDeWF7qpVF1100eTrFBA33njjlPexTKdy3rds2ZKeY0gMxqKO58o7Ijd9oD7Y0fFetkNku6rp9kfhP/7jP9L6hBNOSOtw5513TuaJfJDHul4/w+zfav1QzlH0LCp/breF8jQVJ4I333wzrQNfHgQfwHyQw6jrwTV79uy0rn5uFQEn9gvrOsPmv9/2qwZNTxf4ql49MHPSRwCO8eD74cufhfk8yy699NK05gRevQjpdSHAhUSdtsqbu39zy5ubnv3O+YsvOX49Vq27A2WmnZ/LwzsMgvkeqMtzzjmn80y+buf/HFE3vZZhzrczrf1Emfiuog2wkL/4zqRN1Z3rBm1vKG+Phcfd2gbbJQ3rsvhuHqbuQ9vXA+VjLJZqeaoGrc/IE+nJc7yHcnAcj0JO/pvkJ6c9hGr9dLu+uu2229Lr1XbC9skTr3Vrp4OIz++1VD87V5Pv35mi3HYG/X4Z9Hgso93xvtguC3/zfDhUj18Mmp+2xedTVsrI0uT7pdvxDo5t0tftN56ryk2f2z6r5zfS81x8Xp02y5urzfNzvD5se6CcXm98ZdD6R5P9myOnfTatf14n39RnbJu/eb5OTv3kHl+56XM0rZ82xGdSj3VWrVqVXmc/NMX7+y3DlHk67nflXL9N1/2rNu9HwfSmB+2Q75cDcX/jmWeeSesf/OAHaR3qzsvV82nZoOfzOB+y5Hxfl797+11PxmeQH9LEdxjv6/X/Au9r6/sxR2yv1zLM+RzD/L/c7/w5Hd8XYSSBTr6EEb9CKOMgjhvevQ5MboZHOg5kUNh4LpbpFHkHARAaZ4z7T1l4jl9YhNz04OYR3Xc5AfBe0nJgr1y5cr+Docn2R+X3fu/30vrdd99N6/DRRx+lPLF8+umnKe90Oa4eYE33b7V+WCgnn9HrhDqI8ud2W+q+hAZ1+OGHpzVDSpJ/jpP4BzLqcdasWWk9KnwR0i6oYyb07YYvjXvvvXdyzf7ivWXD5H+Q7ZflpI9AblkMOVtn0PTxRcWx1OtcFaJLfvW8x8TieOWVV9K6n8gf7a1OW+XN3b+55c1NX/6Fz/z58ycvJrhI4DxAHqfbTDo/c9HBdsjLz372s/0+v5edO3emfPf7p62bbuf/HHFO7bUMc76die0Hp59+euoRy4Uh+5/vTNoE+Ymgf8hpb5wf+YeHYYk535Oe45x5Wg+Utq8H4hhjGeQcnVOfgWA+eWZ4bd7DfuM4HkWwJDf/GDQ/TdpDtX5Yul1f8UvLqL+45gdzt5Anfpnc7UbdIOLzey3DnB+66ff9O1M0+X4Z9HgM7FeuwWhDpOd9bJu/eT6OmUP1+G2Sn7YN8/3C0u14B8OkkZ4yVvdv3bGYmz6nfdad3/jR1/XXX5/eV6ft8uZo+/wcvN44MPcfpqN+2myfGPT8H2ba+WRclf+3q/uRQdwUHvSeQp1y3XVbhqnTA3G/C92u36br/lVb92eC6U2PA3l/g6AZOLeXcb6Ic8cg1/ODns+bfl/n/r+DnP8X2v5+zBHb67W08R0Z7ZXtdzPI+XM6vy9+p7POwo3qaDg0CobI5CYHN1+ryuPysmPZ6XW4GR43xNk2DZRxfntFlJsq57+Mm/Jlkfc4yPkHgu685JMdwwmGNTeP6VmXm54dHzs/0oEdftlll6WdXh53O3f7o8L2ojcQJ9my8v4Faf/n//yfaf+R/7jxRR6jfIPuX95P/XAi4Z+FKBPP8Q/FwoULi/vvv3+gE2yd6v5uE+Oxs0/xm9/8Jq1HhTrnS5CLYU647COOxV5tgJMUJ5Pf//3fT+9hf1CnnIDr6jM3/7nbHyT9xx9/nNaXXHJJOgbieb5c4h+Bstz0XDzggw8+SOsmaJscgxhkGFf86Z/+aVoTjCpru7xlTdtnbnl7pT/uuOPSmt6D7HsuJHbv3p0uDHgPbZrhOqJcOfhc2lJV9XuAOQ/iPMV7WDBTzs8EG7h5xXYoD2PnM5REdXiJKn70wMUbN7puv/32zrOD6XX+z9H2+bbN9jMM5kzme476Z5J/2gnXQuSr/A9Nbnu74oor0vUX++TWW2+dLBcX1wdKm9cDKG+/1/UkcuszkBfmjIi88gMYLtiH6REdcvIfBs1PbnvIvb5i/b//9/9Or1F/jHrALy7JH/+EVvd9rum8Hivr9v3bJuo49/so6jfn+2XQ4xG8FtcAfG752OCYYc73+Of2UDx+c/LTZP82Nej3S+7xTr2xDW40la/Du8lNj5z22ev8xudWtV3eXG2fn4PXGwfm/kPb9dN2+8w5/6Pt4ysnPZ9Jmqo2zrdt4f846v+8886bct7jO517Ihj0nkKdg+V+V9Ug129t3L9q+/6M6U1fdiDvb3TbZs71fM75vMn3NXKuJwOvDfL/Qtvfj7lm8v/Lg5w/y9r+vmjUo5ODioyzEOTkJgc9PkbVzbRt5fyXl37oYhsHHzsrGnW34fz6pT+/M/42F8bli6+77rornQy4aOag6yY3P4OKQHAsROTJC9vvd6LhYGaoRJx44olp3dQZZ5yR1vxqJU4SoMzUGXkalzbXxi/Zwg9/+MN0koiLYf6Zrf5yN3CCZl5PTpIEPPgHN04+1CcnnDqD5j93+znpH3zwwXRc8GXJlxJDANA2+Iee9lCVmz4uJIYJdP7oRz9Ka7ZPGfrh+ObcQz7/9m//tvPsPm2Xt6xp+8wtb6/0MT8qcxf89Kc/TRcKTLJOm6BcnLe7tc9+mN+y7lxffo4l5sHETDw/sz0uZpkgnG1SJxz77GsuoLrh/Mn3dPSm7WWY8/+B1Gb7aUv8qg257S3+GSKIXT6WOA/MFKO8HsjV9PjlOIl/ehBtnvQHwqD5yW0PTa6veC3yQk8qzj3U5f/3//1/6blx0+v7t01Nvo+qmny/9Doe45qRbVYDiBwza9asmXIctW2mHb85+RnF/h2F8vfLMP9PLVq0KH1/Dio3fejVPqfj/Baa5r+X6cx/N15vDC63/qezftpon7nn/5l0Ppkp59thcP3Bccd9HG6qh4svvjitqdNyu5rJ2rzfVTbo9Vsb9684rvnctu7PmN70ZeN4f6ObNr6/6gxyPTDo/wvT+f04U/U737YdX2iqUaCTXwzSUFnoUULhCBIQBefXCDNdOf/lpR+62JaxM3lft5u//dLHDYm6wAoHH+bNm5fWdXLzMyhOQOWLQ3Bwsv0q9jc3w/lFSiz8UmEU4sTOgVLePkuvm/ozEb/cIDjBsVI+GY4CJ132O198/DKFLvj8sqau6z2fXT7pgpPQiy++mB7HP2tVg+Y/d/s56UnHMHl8SXCiPeKII9JjvmAiSFm+QMhNX/dcrphgfJAhZmjDf/VXf5Uesw8pd1nb5S1r2j5zyotB0vNLofI5jPzEBNhRjlxsj2MkllB+jqX8uTP1/Ew74cKK4539RV64WK4OW1jFqAuc2+tuDpflnP9nojbaz3TIbW9xIV49Xqvn0+nU5vVArqbHL+fOmWTQ/OS2h6bXV3xX8T3COSf+PpBtrql+379tavJ9VDXI90vO8Ri9vbrNJzSd9YOZdvzm5GcU+3fUco938sa5hPMKQ5nGzTh6qNVdQ+SmR077bPv81iT/Oabr/Dworzd6y63/tuun7faZe/6fSecT0pbPq6H8HAvpZirqN/4/j2EqcfLJJ6f1MMPWTrc273cF2tig129t3L8iXZv3Z0xv+nL6MK73N3LP/000uR6g7gfR9vfjTDfI+Tbn/FnW9vfFSOboJGMcnODmq8ZbORDMY8RBW0YgjYOYm+H8Y8QvylnoUj9KtC/yUbfQPbqp6smnbuGk2dQXX3yR1gyJysFOcIITBOKfzFHWFZ/Bl0cci/wyqPzLwF7eeeedtC7/4neU+a/bfi/d0tMWbrjhhvQDC841/GKEX8Vw05UvrOo/Mjnp48btj3/847TfY4lecLzeqz3wRRC/Uuo3xAxp6crPlz4nd/ZbnTbLO+z+zSkvBk3P/EJV0R7qzkOHMvYXxzv7tl8QM+q834Uf59VBzv+56s6v1WWY822w/RwY03U9oNFqcn3F+WbU6s4H1WUU5wcM+v07zjweVSfneOf6kYXXaDtcR3Ls8KNmblBV5aSfif8/5pZ3OjQ5Px8Kxv3+QxPj3j5z8z8Ty9umn//852ld/h9tFMPWou56qroMc301nfe7aAP9rt+m4/4Vbb+t+zMwvemrDsT9DfIGjqNhUD6WNs7nM/X/HfZxfB9Wl2GuH+rO39Vlpvy/XHf+nM7vi5EEOhEHABUxKlTAwSwaeXnejMAJAAd6wnUi7ZxwOXlUb6ITSAMnLrrQ84tyloje99Nv/8YY5vyCgm7QdUv11wM54kTYaxmm/hlaDHW/Yoj9yzxXo8axGMdjnDDA5NWc/BhLver73/9+WpfLm5v/3O3npq9DcIfAJOJXTb10S8+JPFA22nssEZzj3Mbf3Qw6jCvl5Us9vjTi5D6IUZUXw7bPUQ5bizje4x+7skHbwyiNw/kZ1CUXdv2Qjosu6nfQ7+le5/9cdefX6jJMfc609pOraXur/phl0B+3hLpeUd3EubBO29cDucbl+B21QdtD0+srfjXL92Wcc/g7t83VqTsfVJdR7K9hvn/HSe7xGD27yteMOQ7243fczydNj3euGXiNtsOPnzZu3Jie5xxQvm4Og6Zv+n3R9vktt7y52s7/oLzeaOf+w7D108+w7bNb/eee/2fa+WRURtU+6/RLT1m5riId/28RYOA6ZdD/sXupu56qLsN8f03X/a5Br9/avn9Vh/02qvszdUzf28GcPs63B+L+xiDzMg6q6fm83/f1sNcD/UzX9+Og6s7f1WUU7WHQ823b8YVhjCzQGYXjpuiwojKY3JUD/2C1Y8eOtObEVT7AmdiWRtXtFx3TiYurOOHGCbiqPIQW5eg3D9yg+zc+l1+3cTNt1OJE2GupTm6c4+mnn05r9m/8Igb88oT9G4GHOtQjY3vTtb9bHfF83Wu0n3i+fKKIEwv7p/zPF58VEy//6le/Smvk5j93+7npyygfbYITLydF/jngi6ObfukpB1+6dQu/vAFfHPzdTb9hWSkX+5Nhhfl8vpAHvck66vJimPaJUQ9b+0//9E9pzfFOXYVye6j7NVtbZtr5mX1U3k+BvEUAfu/evWndzcsvv5zyHhcS/Qxy/h9U3fm1ugxzvp1p7SdXbnuLYW2Ys7Vs+fLlnUf1yhfqnCfiH4ReaAcYZA6Qtq4Hco3D9dUo5baHJtdX1CPnIOruf//v/52+G6nL//k//2cnRXN154PqMsz5gbw3/f4dZ4Mej48++mha811S989qN4fK8Tvu55NR/T/V7xqjql/6QdvndJzf6uSWt5sDlf9uvN4Y7f2HpvUzrH7tc9D6zz3/z9TzSa622ydy0jPFCKjXmOdtFMPW1l1PVZeZfL+LNDnXb23fvyojzxwDo7w/U2Z60x+I+xvkiyAX3wlcDzD/9Kj1O5/n/n+Rez0wqAP1/dhN3fm7ukzn/8ttxxeGcdjExMSXncd9sXMpNBnYs2dP59mimDt37mQD5MZHHKDs3CggIl35/TTi6s6gku64447Ji20qGbz/vvvua/zPZLf8l0V+2Dl0gwYNG+SD/NTlOTd94CTCe0EghTJzogMnvWhYTbefg27ObLu8D8E+Iy/krZynSB/7KPLO+6lnUNebN2+e0mBz9i+NPi48y2l579tvvz2Scrcp2hzYv+VjhV+ydGvL5fd1S8c/pJdddtlkOwD1T92gvK/A527atGmyfZEfRHtiH3EyK8vJf+72m+SH9kDALPIA/jH42c9+ltpaVW76OlEH5I8vjzocnxzL4KRdt+1yXXY7B3GhUt5nbZe3afscpLxlg6bnizWnPTTFL4/QK3CNmXR+Lucltl3OT7V+Yt9Wz+cMO1G3j3PP/zNR0/bDr6cZPgX92sSgoo1FHfN3nEO6nVMGbW8oH1Px3cjxyy8PuXhEuSzl7904/7BtbtDFZ/J89fsa5fNEtD3eS35iGJO2rweaXE/m1Ge0geo+waDni15y85+bn9z2gJzrK/Ia39fMp8FQM4j9zvfMTL4ea/L9G9o4P5T1a1/s29zvlybHI200PqfcHsC26vJ3qBy/yMlP2ag+vyy2mfP9knO8R31GO0O5vDzPL+dDbvrc9tn2+S03/7nazn+T9pDTnnPzP+7XG8ip/yb7N0du+2xS/7nn/5l0Pikb5Hzbdvssy01P0C/yNWvWrLRPeDzTlcvJ+YT2z3c8et1PKL+vW7pymthfVdXrt5z8lK9vQXrQ7kEbmO77UaY3fVmb98fi+/T/394d5DQOQ2EAZskChMSCK4LECo6ChASnY43EIUZ/NI/xhDLUphHJ9PukCChumtjOsxsncT63jq1ad+JV4lR7bI1+n+2N5/u21739gdqe5OO+3xeWbB/XpjfepuyXHF/4jqE7OrMh2fha8ncKMB3j9gTp1dXVh3TRvn/XYyJyO29N0huVNg3++fn59Np3zLe/XWp7Li4u3l8rKcA2Tas3fUnB50BM/iVt3pMCTyG3QWV0/YeQSl5XJ+RZ4iXPbK4OYLYjkylnX+YnybPtrZ7yTSBIXszT1sG0dsmLHBdVvsmP7MtXB3Gutq3A+Nnt26+vr1NdqXqQJWr9bf2JlGPm80sZ5fd6Tz4jr+1qJHu2v3f9I9tzeXk51ZPsd9JcX19PdSTv36U3/ajex7h+FoMSM1tL7+9o/Tz0Y2tL6kM6eklTeZJty4n1XfVhaWuKz7kbs/Kv1l3bkzLcN396Hz+Sz9sV/9dotP5UGSXtT9q3vkXa3rye/6fjnPTpjOaqy137kXb34eFh+l+O86w7HdWaFyjy+ry9jsSJ5GvapKp7b29vJ2dnZ79TLN8fGOlP9uTn0kb7w/vqrQ/R07+6v79/z78a5IyUe+pFvtC1V2auWZvn7TJvf8tPx4eR9mXkeMwxsas+ZMm+56TD3LEcv7G27enVc7ynLNq+Rru/yYO0ta3e9L3181/x7TNL7m+vpePzCP2NP3k6j1fRk/8j5dujt36O5H9v/F9TPOm1dP1s9abPdkQ+P3mbfNiC7OdS57taWW/ViXaZ9996tid5nDqVupXfa515b15LrJxb+vyM9NK3Uj9Hzm/0aI+trDufd3d396E/0NufH43n+7bXo/2BHku2j2vWlmm7tPE2ZdsbP0fbi15dd3QCAPxP6sqydJQP9YUB+D+ID7BOubji9vZ2OlG+9guxAL6SE751d8yhT/oCwLE42BydAABbc3p6Ov3MxPEALfEB1iVXz+dRYlmirpoH2Ko8UrEGOXM3lUFOABhjoBMAOFr1iBUnS4E58QF+VgYAMndSLc/Pz9N8SXlMaB59lbmXALYmc4Jm/r3EtcwbV490zFx9AMAYA50AwNF7eXn5/RvA38QHWIfMA5TBgMxPlbmB8jfA1mTeuBrczOPxHx8fT25ubsQ0APgGc3QCAEfr6elp+pmTCwAt8QEAAADWz0AnAAAAAAAAsDkeXQsAAAAAAABsjoFOAAAAAAAAYHMMdAIAAAAAAACbY6ATAAAAAAAA2BwDnQAAAAAAAMDmGOgEAAAAAAAANsdAJwAAAAAAALA5BjoBAAAAAACAzTHQCQAAAAAAAGzMyckv3Sdkm5P7wR8AAAAASUVORK5CYII=;" vertex="1" parent="1">
          <mxGeometry x="-560" y="180" width="1850" height="359" as="geometry" />
        </mxCell>
        <mxCell id="jFsR8MRq-HhK5lw-doGB-2" value="" style="endArrow=none;dashed=1;html=1;rounded=0;strokeColor=#FF0000;strokeWidth=5;startArrow=classicThin;startFill=1;edgeStyle=orthogonalEdgeStyle;" edge="1" parent="1">
          <mxGeometry width="50" height="50" relative="1" as="geometry">
            <mxPoint x="752" y="230" as="sourcePoint" />
            <mxPoint x="752" as="targetPoint" />
          </mxGeometry>
        </mxCell>
        <mxCell id="jFsR8MRq-HhK5lw-doGB-3" value="" style="endArrow=none;dashed=1;html=1;rounded=0;strokeWidth=5;strokeColor=#FF0000;" edge="1" parent="1">
          <mxGeometry width="50" height="50" relative="1" as="geometry">
            <mxPoint x="685" y="3" as="sourcePoint" />
            <mxPoint x="755" y="3" as="targetPoint" />
            <Array as="points">
              <mxPoint x="725" y="3" />
            </Array>
          </mxGeometry>
        </mxCell>
        <mxCell id="jFsR8MRq-HhK5lw-doGB-4" value="&lt;font color=&quot;#ff0000&quot;&gt;Modulation Index&lt;/font&gt;" style="text;html=1;strokeColor=none;fillColor=none;align=center;verticalAlign=middle;whiteSpace=wrap;rounded=0;" vertex="1" parent="1">
          <mxGeometry x="615" y="-13" width="70" height="30" as="geometry" />
        </mxCell>
        <mxCell id="jFsR8MRq-HhK5lw-doGB-5" value="" style="endArrow=none;dashed=1;html=1;rounded=0;strokeColor=#FF0000;strokeWidth=5;startArrow=classicThin;startFill=1;edgeStyle=orthogonalEdgeStyle;" edge="1" parent="1">
          <mxGeometry width="50" height="50" relative="1" as="geometry">
            <mxPoint x="795" y="230" as="sourcePoint" />
            <mxPoint x="795" as="targetPoint" />
          </mxGeometry>
        </mxCell>
        <mxCell id="jFsR8MRq-HhK5lw-doGB-6" value="&lt;font color=&quot;#ff0000&quot;&gt;Number of Messages&lt;/font&gt;" style="text;html=1;strokeColor=none;fillColor=none;align=center;verticalAlign=middle;whiteSpace=wrap;rounded=0;" vertex="1" parent="1">
          <mxGeometry x="760" y="-32" width="70" height="30" as="geometry" />
        </mxCell>
        <mxCell id="jFsR8MRq-HhK5lw-doGB-7" value="" style="endArrow=none;dashed=1;html=1;rounded=0;strokeColor=#FF0000;strokeWidth=5;startArrow=classicThin;startFill=1;" edge="1" parent="1">
          <mxGeometry width="50" height="50" relative="1" as="geometry">
            <mxPoint x="838" y="231" as="sourcePoint" />
            <mxPoint x="838" y="40" as="targetPoint" />
          </mxGeometry>
        </mxCell>
        <mxCell id="jFsR8MRq-HhK5lw-doGB-8" value="" style="endArrow=none;dashed=1;html=1;strokeWidth=5;rounded=0;strokeColor=#FF0000;" edge="1" parent="1">
          <mxGeometry width="50" height="50" relative="1" as="geometry">
            <mxPoint x="836" y="54" as="sourcePoint" />
            <mxPoint x="887" y="54" as="targetPoint" />
          </mxGeometry>
        </mxCell>
        <mxCell id="jFsR8MRq-HhK5lw-doGB-9" value="&lt;font color=&quot;#ff0000&quot;&gt;SNR&lt;/font&gt;" style="text;html=1;strokeColor=none;fillColor=none;align=center;verticalAlign=middle;whiteSpace=wrap;rounded=0;" vertex="1" parent="1">
          <mxGeometry x="871" y="39" width="60" height="30" as="geometry" />
        </mxCell>
        <mxCell id="jFsR8MRq-HhK5lw-doGB-10" value="" style="endArrow=none;dashed=1;html=1;rounded=0;strokeColor=#FF0000;strokeWidth=5;startArrow=classicThin;startFill=1;" edge="1" parent="1">
          <mxGeometry width="50" height="50" relative="1" as="geometry">
            <mxPoint x="873" y="231" as="sourcePoint" />
            <mxPoint x="873" y="100" as="targetPoint" />
          </mxGeometry>
        </mxCell>
        <mxCell id="jFsR8MRq-HhK5lw-doGB-11" value="&lt;font color=&quot;#ff0000&quot;&gt;Distance&lt;/font&gt;" style="text;html=1;strokeColor=none;fillColor=none;align=center;verticalAlign=middle;whiteSpace=wrap;rounded=0;" vertex="1" parent="1">
          <mxGeometry x="840" y="88" width="70" height="30" as="geometry" />
        </mxCell>
      </root>
    </mxGraphModel>
  </diagram>
</mxfile>
